<svg xmlns="http://www.w3.org/2000/svg" xmlns:xlink="http://www.w3.org/1999/xlink" viewBox="0 0 468.44 76.35"><defs><style>.cls-1{fill:none;}.cls-2{isolation:isolate;}.cls-3{opacity:0.68;}.cls-4{clip-path:url(#clip-path);}.cls-5{mix-blend-mode:multiply;}.cls-6{fill:#fff;opacity:0;}.cls-7{fill:#fcfcfc;opacity:0.01;}.cls-8{fill:#f9f9f9;opacity:0.02;}.cls-9{fill:#f6f6f6;opacity:0.03;}.cls-10{fill:#f4f4f4;opacity:0.04;}.cls-11{fill:#f1f1f1;opacity:0.06;}.cls-12{fill:#eee;opacity:0.07;}.cls-13{fill:#ebebeb;opacity:0.08;}.cls-14{fill:#e8e8e8;opacity:0.09;}.cls-15{fill:#e5e5e5;opacity:0.1;}.cls-16{fill:#e2e2e2;opacity:0.11;}.cls-17{fill:#dfdfdf;opacity:0.12;}.cls-18{fill:#ddd;opacity:0.13;}.cls-19{fill:#dadada;opacity:0.15;}.cls-20{fill:#d7d7d7;opacity:0.16;}.cls-21{fill:#d4d4d4;opacity:0.17;}.cls-22{fill:#d1d1d1;opacity:0.18;}.cls-23{fill:#cecece;opacity:0.19;}.cls-24{fill:#cbcbcb;opacity:0.2;}.cls-25{fill:#c9c9c9;opacity:0.21;}.cls-26{fill:#c6c6c6;opacity:0.22;}.cls-27{fill:#c3c3c3;opacity:0.24;}.cls-28{fill:silver;opacity:0.25;}.cls-29{fill:#bdbdbd;opacity:0.26;}.cls-30{fill:#bababa;opacity:0.27;}.cls-31{fill:#b7b7b7;opacity:0.28;}.cls-32{fill:#b5b5b5;opacity:0.29;}.cls-33{fill:#b2b2b2;opacity:0.3;}.cls-34{fill:#afafaf;opacity:0.31;}.cls-35{fill:#acacac;opacity:0.33;}.cls-36{fill:#a9a9a9;opacity:0.34;}.cls-37{fill:#a6a6a6;opacity:0.35;}.cls-38{fill:#a3a3a3;opacity:0.36;}.cls-39{fill:#a0a0a0;opacity:0.37;}.cls-40{fill:#9e9e9e;opacity:0.38;}.cls-41{fill:#9b9b9b;opacity:0.39;}.cls-42{fill:#989898;opacity:0.4;}.cls-43{fill:#959595;opacity:0.42;}.cls-44{fill:#929292;opacity:0.43;}.cls-45{fill:#8f8f8f;opacity:0.44;}.cls-46{fill:#8c8c8c;opacity:0.45;}.cls-47{fill:#8a8a8a;opacity:0.46;}.cls-48{fill:#878787;opacity:0.47;}.cls-49{fill:#848484;opacity:0.48;}.cls-50{fill:#818181;opacity:0.49;}.cls-51{fill:#7e7e7e;opacity:0.51;}.cls-52{fill:#7b7b7b;opacity:0.52;}.cls-53{fill:#787878;opacity:0.53;}.cls-54{fill:#757575;opacity:0.54;}.cls-55{fill:#737373;opacity:0.55;}.cls-56{fill:#707070;opacity:0.56;}.cls-57{fill:#6d6d6d;opacity:0.57;}.cls-58{fill:#6a6a6a;opacity:0.58;}.cls-59{fill:#676767;opacity:0.6;}.cls-60{fill:#646464;opacity:0.61;}.cls-61{fill:#616161;opacity:0.62;}.cls-62{fill:#5f5f5f;opacity:0.63;}.cls-63{fill:#5c5c5c;opacity:0.64;}.cls-64{fill:#595959;opacity:0.65;}.cls-65{fill:#565656;opacity:0.66;}.cls-66{fill:#535353;opacity:0.67;}.cls-67{fill:#505050;opacity:0.69;}.cls-68{fill:#4d4d4d;opacity:0.7;}.cls-69{fill:#4a4a4a;opacity:0.71;}.cls-70{fill:#484848;opacity:0.72;}.cls-71{fill:#454545;opacity:0.73;}.cls-72{fill:#424242;opacity:0.74;}.cls-73{fill:#3f3f3f;opacity:0.75;}.cls-74{fill:#3c3c3c;opacity:0.76;}.cls-75{fill:#393939;opacity:0.78;}.cls-76{fill:#363636;opacity:0.79;}.cls-77{fill:#343434;opacity:0.8;}.cls-78{fill:#313131;opacity:0.81;}.cls-79{fill:#2e2e2e;opacity:0.82;}.cls-80{fill:#2b2b2b;opacity:0.83;}.cls-81{fill:#282828;opacity:0.84;}.cls-82{fill:#252525;opacity:0.85;}.cls-83{fill:#222;opacity:0.87;}.cls-84{fill:#202020;opacity:0.88;}.cls-85{fill:#1d1d1d;opacity:0.89;}.cls-86{fill:#1a1a1a;opacity:0.9;}.cls-87{fill:#171717;opacity:0.91;}.cls-88{fill:#141414;opacity:0.92;}.cls-89{fill:#111;opacity:0.93;}.cls-90{fill:#0e0e0e;opacity:0.94;}.cls-91{fill:#0b0b0b;opacity:0.96;}.cls-92{fill:#090909;opacity:0.97;}.cls-93{fill:#060606;opacity:0.98;}.cls-94{fill:#030303;opacity:0.99;}</style><clipPath id="clip-path" transform="translate(0 9.24)"><rect class="cls-1" width="468.44" height="51.45"/></clipPath></defs><title>GoogleVerif_Ресурс 1</title><g class="cls-2"><g id="Слой_2" data-name="Слой 2"><g id="SHADOW"><g id="Calendar" class="cls-3"><g class="cls-4"><g class="cls-5"><path class="cls-6" d="M468.44-3.84C451.93,17.53,429.81,28,409.88,36.47a341.65,341.65,0,0,1-58.55,18.32c-38.7,8.69-78.05,12.31-117.11,12.32s-78.41-3.63-117.11-12.32A341.75,341.75,0,0,1,58.55,36.47C38.63,28,16.51,17.53,0-3.84v-5.4C16.51,12.13,38.63,22.63,58.55,31.07a342.64,342.64,0,0,0,58.56,18.32c38.7,8.69,78.05,12.31,117.11,12.31s78.41-3.62,117.11-12.31a342.53,342.53,0,0,0,58.55-18.32c19.93-8.44,42.05-18.94,58.56-40.31Z" transform="translate(0 9.24)"/><path class="cls-7" d="M1.4-9.22C17.72,11.91,40,22.29,59.65,30.64c19,8,38.79,13.75,58.19,18.11,38.27,8.59,77.76,12.17,116.38,12.17s78.11-3.58,116.37-12.17c19.41-4.36,39.19-10.06,58.2-18.11,19.7-8.35,41.93-18.73,58.25-39.86v5.35c-16.32,21.12-38.2,31.54-57.9,39.88a337.61,337.61,0,0,1-57.89,18.14c-38.27,8.6-78.41,12.18-117,12.18s-78.76-3.58-117-12.18A338,338,0,0,1,59.29,36C39.59,27.67,17.72,17.25,1.4-3.87Z" transform="translate(0 9.24)"/><path class="cls-8" d="M2.79-9.2C18.93,11.69,41.26,22,60.74,30.2c18.8,8,38.65,13.6,57.84,17.91,37.83,8.5,77.46,12,115.64,12s77.8-3.54,115.64-12c19.19-4.31,39-10,57.84-17.91C427.17,22,449.51,11.69,465.65-9.2v5.29C449.51,17,427.88,27.3,408.41,35.55a334.88,334.88,0,0,1-57.24,18c-37.83,8.49-78.77,12-117,12S155.1,62,117.27,53.52A334.83,334.83,0,0,1,60,35.56C40.56,27.3,18.93,17,2.79-3.91Z" transform="translate(0 9.24)"/><path class="cls-9" d="M4.19-9.18c16,20.65,38.39,30.8,57.64,39,18.58,7.87,38.52,13.44,57.49,17.7,37.39,8.4,77.16,11.9,114.9,11.9s77.5-3.5,114.9-11.9c19-4.26,38.91-9.83,57.49-17.7,19.25-8.15,41.69-18.3,57.64-38.95v5.23c-15.95,20.65-37.33,30.89-56.58,39a330.83,330.83,0,0,1-56.58,17.79c-37.4,8.4-79.13,11.89-116.87,11.9s-79.47-3.5-116.87-11.9A330.79,330.79,0,0,1,60.77,35.1C41.52,26.94,20.14,16.7,4.19-3.95Z" transform="translate(0 9.24)"/><path class="cls-10" d="M5.59-9.16C21.35,11.25,43.9,21.28,62.92,29.34c18.37,7.78,38.38,13.28,57.13,17.5,37,8.3,76.87,11.75,114.17,11.76s77.2-3.46,114.16-11.76c18.75-4.22,38.77-9.72,57.13-17.5,19-8.06,41.58-18.09,57.34-38.5V-4C447.09,16.42,426,26.57,406.93,34.64A327.3,327.3,0,0,1,351,52.24C314,60.54,271.52,64,234.22,64s-79.83-3.46-116.79-11.76a325.87,325.87,0,0,1-55.92-17.6C42.48,26.58,21.35,16.42,5.59-4Z" transform="translate(0 9.24)"/><path class="cls-11" d="M7-9.13C22.56,11,45.21,20.94,64,28.91,82.16,36.59,102.26,42,120.79,46.2c36.53,8.2,76.56,11.62,113.43,11.62s76.9-3.42,113.43-11.62c18.53-4.17,38.62-9.61,56.77-17.29,18.81-8,41.46-17.88,57-38V-4C445.88,16.14,425,26.21,406.19,34.18A323.26,323.26,0,0,1,350.93,51.6c-36.53,8.21-79.85,11.62-116.71,11.63S154,59.81,117.51,51.6A322.1,322.1,0,0,1,62.25,34.18C43.44,26.22,22.56,16.14,7-4Z" transform="translate(0 9.24)"/><path class="cls-12" d="M8.38-9.11C23.77,10.81,46.53,20.61,65.11,28.48c17.93,7.59,38.11,13,56.41,17.08,36.1,8.11,76.27,11.48,112.7,11.49s76.6-3.38,112.69-11.49c18.31-4.11,38.49-9.49,56.42-17.08,18.58-7.87,41.34-17.67,56.73-37.59v5.05c-15.39,19.92-36,29.91-54.61,37.78A320.15,320.15,0,0,1,350.85,51c-36.1,8.1-80.21,11.48-116.63,11.48S153.68,59.07,117.59,51A319.27,319.27,0,0,1,63,33.72C44.41,25.85,23.77,15.87,8.38-4.06Z" transform="translate(0 9.24)"/><path class="cls-13" d="M9.77-9.09C25,10.59,47.84,20.27,66.2,28.05c17.72,7.5,38,12.81,56.06,16.87,35.66,8,76,11.35,112,11.35s76.3-3.34,112-11.35c18.08-4.06,38.34-9.37,56.06-16.87,18.35-7.78,41.22-17.46,56.42-37.14v5c-15.2,19.69-35.59,29.58-54,37.36a315.94,315.94,0,0,1-53.95,17.07c-35.65,8-80.55,11.34-116.54,11.35s-80.89-3.34-116.55-11.35A316.45,316.45,0,0,1,63.72,33.27C45.37,25.49,25,15.59,9.77-4.1Z" transform="translate(0 9.24)"/><path class="cls-14" d="M11.17-9.07c15,19.45,38,29,56.12,36.68C84.79,35,105.13,40.27,123,44.29c35.22,7.91,75.67,11.2,111.22,11.2s76-3.29,111.22-11.2c17.87-4,38.2-9.27,55.71-16.68,18.13-7.68,41.1-17.23,56.12-36.68v4.93c-15,19.45-35.16,29.26-53.29,36.94a311.67,311.67,0,0,1-53.3,16.89C315.46,57.6,269.77,60.9,234.22,60.9S153,57.6,117.75,49.69A311.52,311.52,0,0,1,64.46,32.81C46.33,25.13,26.19,15.31,11.17-4.13Z" transform="translate(0 9.24)"/><path class="cls-15" d="M12.57-9C27.4,10.16,50.47,19.6,68.38,27.18c17.29,7.32,37.71,12.5,55.35,16.47,34.79,7.81,75.38,11.07,110.49,11.07s75.7-3.26,110.48-11.07c17.65-4,38.07-9.15,55.35-16.47C418,19.6,441,10.16,455.87-9v4.88C441,15,421.14,24.75,403.24,32.34A307.63,307.63,0,0,1,350.6,49.05c-34.78,7.82-81.27,11.07-116.38,11.07s-81.6-3.25-116.39-11.07A307.76,307.76,0,0,1,65.2,32.35C47.29,24.76,27.4,15,12.57-4.17Z" transform="translate(0 9.24)"/><path class="cls-16" d="M14-9c14.65,19,37.83,28.29,55.51,35.78C86.54,34,107,39.1,124.47,43c34.35,7.72,75.08,10.93,109.75,10.93S309.61,50.73,344,43c17.42-3.91,37.92-9,55-16.26C416.64,19.26,439.82,9.94,454.47-9v4.82c-14.65,19-34.29,28.6-52,36.09a304.52,304.52,0,0,1-52,16.54c-34.35,7.71-81.63,10.92-116.3,10.93s-81.95-3.22-116.31-10.93a304.65,304.65,0,0,1-52-16.53C48.26,24.4,28.61,14.76,14-4.21Z" transform="translate(0 9.24)"/><path class="cls-17" d="M15.36-9C29.83,9.72,53.11,18.92,70.57,26.32c16.85,7.14,37.43,12.19,54.63,16,33.92,7.62,74.79,10.79,109,10.8s75.09-3.18,109-10.8c17.21-3.86,37.79-8.91,54.64-16,17.46-7.4,40.74-16.6,55.21-35.33v4.76C438.61,14.48,419.22,24,401.76,31.42a300.48,300.48,0,0,1-51.32,16.36c-33.92,7.62-82,10.79-116.22,10.79S151.91,55.4,118,47.78A301.28,301.28,0,0,1,66.68,31.44C49.22,24,29.83,14.48,15.36-4.25Z" transform="translate(0 9.24)"/><path class="cls-18" d="M16.76-9C31,9.5,54.42,18.59,71.66,25.89c16.63,7,37.3,12,54.28,15.85,33.48,7.52,74.48,10.65,108.28,10.65S309,49.26,342.5,41.74c17-3.82,37.64-8.81,54.28-15.85C414,18.59,437.4,9.5,451.68-9v4.69C437.4,14.2,418.26,23.66,401,31a296.44,296.44,0,0,1-50.66,16.18C316.88,54.66,268,57.79,234.22,57.8s-82.66-3.14-116.14-10.66A297.23,297.23,0,0,1,67.42,31C50.18,23.67,31,14.2,16.76-4.28Z" transform="translate(0 9.24)"/><path class="cls-19" d="M18.15-9c14.1,18.24,37.59,27.21,54.6,34.42,16.42,6.95,37.16,11.87,53.93,15.64,33,7.42,74.18,10.51,107.54,10.52s74.49-3.1,107.54-10.52c16.76-3.77,37.5-8.69,53.92-15.64,17-7.21,40.51-16.18,54.6-34.42v4.64c-14.09,18.24-33,27.62-50,34.82a293,293,0,0,1-50,16C317.23,53.93,267.57,57,234.22,57s-83-3.09-116.06-10.51a293.91,293.91,0,0,1-50-16c-17-7.21-35.9-16.6-50-34.84Z" transform="translate(0 9.24)"/><path class="cls-20" d="M19.55-8.94c13.91,18,37.5,26.85,54.29,34,16.21,6.86,37,11.71,53.57,15.43C160,47.79,201.3,50.84,234.22,50.84S308.41,47.79,341,40.46c16.55-3.72,37.37-8.57,53.57-15.43,16.79-7.12,40.39-16,54.3-34v4.58C435,13.65,416.33,22.93,399.54,30A289,289,0,0,1,350.2,45.87c-32.61,7.32-83.07,10.37-116,10.38s-83.37-3.06-116-10.38A289.86,289.86,0,0,1,68.89,30.06C52.1,23,33.46,13.65,19.55-4.36Z" transform="translate(0 9.24)"/><path class="cls-21" d="M21-8.92c13.72,17.76,37.42,26.5,54,33.51,16,6.77,36.9,11.57,53.22,15.24,32.18,7.22,73.59,10.23,106.07,10.23s73.89-3,106.07-10.23c16.32-3.67,37.22-8.47,53.21-15.24,16.56-7,40.27-15.75,54-33.51V-4.4c-13.72,17.77-32.12,27-48.68,34a286.15,286.15,0,0,1-48.69,15.64c-32.18,7.23-83.43,10.24-115.9,10.24s-83.72-3-115.9-10.24A286.11,286.11,0,0,1,69.63,29.6c-16.56-7-35-16.23-48.68-34Z" transform="translate(0 9.24)"/><path class="cls-22" d="M22.34-8.9C35.88,8.63,59.69,17.24,76,24.16c15.77,6.68,36.75,11.41,52.85,15,31.75,7.13,73.3,10.1,105.34,10.1s73.59-3,105.33-10.1c16.1-3.62,37.09-8.35,52.86-15C408.75,17.24,432.56,8.63,446.1-8.9v4.47c-13.54,17.52-31.69,26.63-48,33.56a283,283,0,0,1-48,15.46c-31.74,7.13-83.78,10.1-115.82,10.1s-84.08-3-115.82-10.1a282.91,282.91,0,0,1-48-15.44C54,22.22,35.88,13.09,22.34-4.43Z" transform="translate(0 9.24)"/><path class="cls-23" d="M23.74-8.88C37.09,8.41,61,16.9,77.12,23.73c15.55,6.59,36.62,11.25,52.5,14.82,31.31,7,73,10,104.6,10s73.29-2.93,104.6-10c15.88-3.57,36.94-8.23,52.5-14.82,16.11-6.83,40-15.32,53.38-32.61v4.41c-13.35,17.28-31.25,26.31-47.37,33.14A279.29,279.29,0,0,1,350,44c-31.31,7-84.14,9.95-115.74,10S149.79,51,118.48,44A278.91,278.91,0,0,1,71.11,28.69C55,21.86,37.09,12.81,23.74-4.47Z" transform="translate(0 9.24)"/><path class="cls-24" d="M25.13-8.86C38.3,8.19,62.32,16.57,78.21,23.3c15.34,6.49,36.48,11.09,52.14,14.61,30.88,6.94,72.71,9.82,103.87,9.83s73-2.89,103.86-9.83c15.66-3.52,36.8-8.12,52.14-14.61,15.9-6.73,39.92-15.11,53.08-32.16v4.35c-13.16,17-30.82,26-46.71,32.72a275.25,275.25,0,0,1-46.71,15.11c-30.88,6.93-84.5,9.82-115.66,9.82s-84.79-2.89-115.66-9.82A274.27,274.27,0,0,1,71.85,28.23C56,21.5,38.3,12.54,25.13-4.51Z" transform="translate(0 9.24)"/><path class="cls-25" d="M26.53-8.83c13,16.8,37.1,25.06,52.77,31.7,15.13,6.4,36.35,10.94,51.79,14.41C161.53,44.11,203.5,47,234.22,47s72.68-2.85,103.12-9.68c15.44-3.47,36.67-8,51.79-14.41C404.8,16.23,428.92,8,441.91-8.83v4.28c-13,16.81-30.39,25.66-46.06,32.3A271.21,271.21,0,0,1,349.8,42.68c-30.44,6.84-84.86,9.68-115.58,9.69s-85.14-2.85-115.58-9.69a270.23,270.23,0,0,1-46-14.91C56.92,21.13,39.51,12.26,26.53-4.55Z" transform="translate(0 9.24)"/><path class="cls-26" d="M27.93-8.81C40.72,7.75,65,15.89,80.39,22.44c14.91,6.31,36.22,10.78,51.44,14.2,30,6.74,72.1,9.54,102.39,9.55s72.38-2.81,102.39-9.55c15.22-3.42,36.52-7.89,51.43-14.2,15.44-6.55,39.67-14.69,52.47-31.25v4.23c-12.8,16.56-29.95,25.33-45.4,31.87A267.16,267.16,0,0,1,349.72,42c-30,6.74-85.22,9.55-115.5,9.55s-85.5-2.81-115.5-9.55a266.58,266.58,0,0,1-45.4-14.73C57.88,20.77,40.72,12,27.93-4.58Z" transform="translate(0 9.24)"/><path class="cls-27" d="M29.32-8.79C41.93,7.53,66.26,15.56,81.49,22c14.69,6.23,36.07,10.63,51.07,14,29.57,6.64,71.81,9.41,101.66,9.41S306.3,42.64,335.87,36c15-3.37,36.39-7.77,51.08-14,15.22-6.44,39.55-14.47,52.16-30.79v4.17c-12.61,16.32-29.51,25-44.73,31.45a264.74,264.74,0,0,1-44.74,14.58c-29.57,6.64-85.58,9.4-115.42,9.41s-85.85-2.77-115.42-9.41A264.31,264.31,0,0,1,74.06,26.86C58.84,20.41,41.93,11.71,29.32-4.62Z" transform="translate(0 9.24)"/><path class="cls-28" d="M30.72-8.77c12.43,16.08,36.86,24,51.86,30.34C97.05,27.7,118.52,32,133.3,35.36c29.13,6.55,71.51,9.27,100.92,9.27S306,41.91,335.13,35.36c14.78-3.32,36.25-7.66,50.72-13.79,15-6.35,39.44-14.26,51.87-30.34v4.11c-12.43,16.09-29.09,24.68-44.08,31a260.1,260.1,0,0,1-44.08,14.4C320.42,47.31,263.62,50,234.22,50S148,47.31,118.88,40.77A259.67,259.67,0,0,1,74.8,26.4c-15-6.36-31.65-15-44.08-31.06Z" transform="translate(0 9.24)"/><path class="cls-29" d="M32.12-8.75C44.36,7.1,68.9,14.88,83.67,21.14c14.26,6,35.81,10.31,50.36,13.59,28.7,6.44,71.22,9.13,100.18,9.13s71.49-2.69,100.19-9.13c14.56-3.28,36.1-7.55,50.36-13.59,14.78-6.26,39.32-14,51.56-29.89V-4.7c-12.24,15.85-28.65,24.35-43.42,30.61a256.06,256.06,0,0,1-43.42,14.22c-28.7,6.45-86.3,9.13-115.26,9.13S147.66,46.58,119,40.13A255.63,255.63,0,0,1,75.54,25.94C60.77,19.68,44.36,11.15,32.12-4.69Z" transform="translate(0 9.24)"/><path class="cls-30" d="M33.51-8.73C45.57,6.88,70.21,14.55,84.76,20.71c14,5.95,35.67,10.16,50,13.38,28.27,6.35,70.92,9,99.44,9s71.19-2.64,99.45-9c14.34-3.22,36-7.43,50-13.38,14.55-6.16,39.2-13.83,51.25-29.44v4c-12.05,15.6-28.21,24-42.76,30.18a252,252,0,0,1-42.76,14c-28.27,6.35-86.66,9-115.18,9s-86.91-2.65-115.18-9a251.88,251.88,0,0,1-42.76-14C61.73,19.32,45.57,10.87,33.51-4.73Z" transform="translate(0 9.24)"/><path class="cls-31" d="M34.91-8.71c11.87,15.37,36.62,22.92,50.94,29,13.83,5.85,35.54,10,49.66,13.17,27.83,6.25,70.62,8.85,98.7,8.86s70.89-2.61,98.72-8.86c14.11-3.17,35.82-7.32,49.65-13.17,14.32-6.07,39.08-13.62,50.95-29v3.94C421.66,10.59,405.75,18.92,391.42,25a249.21,249.21,0,0,1-42.1,13.87c-27.84,6.25-87,8.85-115.1,8.85s-87.27-2.6-115.1-8.85A248.77,248.77,0,0,1,77,25C62.69,19,46.78,10.6,34.91-4.77Z" transform="translate(0 9.24)"/><path class="cls-32" d="M36.31-8.69C48,6.44,72.84,13.87,87,19.85c13.61,5.76,35.4,9.84,49.29,13,27.4,6.16,70.33,8.72,98,8.72s70.58-2.56,98-8.72c13.9-3.12,35.68-7.2,49.3-13,14.1-6,39-13.41,50.64-28.54v3.88c-11.68,15.13-27.34,23.37-41.45,29.35a244.93,244.93,0,0,1-41.45,13.68c-27.39,6.15-87.36,8.71-115,8.72s-87.62-2.57-115-8.72A245.37,245.37,0,0,1,77.75,24.57C63.65,18.59,48,10.32,36.31-4.81Z" transform="translate(0 9.24)"/><path class="cls-33" d="M37.7-8.66C49.2,6.22,74.16,13.54,88,19.42,101.43,25.09,123.3,29.1,137,32.18c27,6,70,8.57,97.23,8.58s70.28-2.53,97.24-8.58c13.68-3.08,35.55-7.09,48.94-12.76,13.88-5.88,38.85-13.2,50.35-28.08v3.81c-11.5,14.89-26.92,23-40.8,28.93a240.88,240.88,0,0,1-40.79,13.5c-27,6.06-87.72,8.58-114.93,8.58s-88-2.52-114.94-8.58A241.33,241.33,0,0,1,78.49,24.11C64.61,18.23,49.2,10,37.7-4.84Z" transform="translate(0 9.24)"/><path class="cls-34" d="M39.1-8.64C50.41,6,75.47,13.2,89.13,19c13.18,5.58,35.13,9.54,48.58,12.56,26.53,6,69.73,8.44,96.5,8.44s70-2.48,96.51-8.44c13.45-3,35.4-7,48.58-12.56C393,13.2,418,6,429.34-8.64v3.76C418,9.76,402.86,17.83,389.21,23.62a237.24,237.24,0,0,1-40.14,13.32c-26.52,6-88.08,8.44-114.85,8.45s-88.33-2.49-114.86-8.45A237.29,237.29,0,0,1,79.23,23.65C65.58,17.87,50.41,9.76,39.1-4.88Z" transform="translate(0 9.24)"/><path class="cls-35" d="M40.5-8.62C51.62,5.78,76.79,12.86,90.22,18.55c13,5.49,35,9.38,48.23,12.35,26.09,5.86,69.43,8.3,95.76,8.3s69.68-2.44,95.77-8.3c13.24-3,35.27-6.86,48.23-12.35,13.43-5.69,38.61-12.77,49.73-27.17v3.7c-11.12,14.4-26,22.39-39.47,28.08A234.44,234.44,0,0,1,349,36.31c-26.09,5.86-88.44,8.3-114.77,8.3s-88.68-2.44-114.78-8.3A234.19,234.19,0,0,1,80,23.19C66.54,17.5,51.62,9.49,40.5-4.92Z" transform="translate(0 9.24)"/><path class="cls-36" d="M41.89-8.6C52.83,5.56,78.11,12.53,91.31,18.12c12.75,5.4,34.86,9.22,47.88,12.15,25.65,5.76,69.13,8.16,95,8.16s69.38-2.4,95-8.16c13-2.93,35.12-6.75,47.87-12.15,13.2-5.59,38.48-12.56,49.43-26.72V-5C415.6,9.21,400.94,17.1,387.73,22.7a230.39,230.39,0,0,1-38.82,13c-25.65,5.76-88.8,8.16-114.69,8.16s-89-2.4-114.69-8.16A231.11,231.11,0,0,1,80.71,22.74C67.5,17.14,52.83,9.21,41.89-5Z" transform="translate(0 9.24)"/><path class="cls-37" d="M43.29-8.58C54,5.35,79.42,12.19,92.4,17.69c12.54,5.31,34.73,9.06,47.52,11.94,25.22,5.66,68.84,8,94.29,8s69.08-2.36,94.3-8c12.79-2.88,35-6.63,47.52-11.94,13-5.5,38.36-12.34,49.12-26.27V-5C414.39,8.93,400,16.74,387,22.24A225.76,225.76,0,0,1,348.83,35c-25.22,5.67-89.16,8-114.61,8s-89.39-2.36-114.61-8A226.16,226.16,0,0,1,81.45,22.28C68.46,16.78,54,8.93,43.29-5Z" transform="translate(0 9.24)"/><path class="cls-38" d="M44.68-8.56C55.25,5.13,80.74,11.85,93.5,17.26c12.31,5.21,34.59,8.9,47.16,11.73,24.78,5.57,68.54,7.88,93.55,7.89S303,34.56,327.77,29c12.58-2.83,34.85-6.52,47.16-11.73,12.76-5.41,38.25-12.13,48.82-25.82V-5C413.18,8.65,399,16.37,386.25,21.78c-12.31,5.22-24.93,9.79-37.5,12.62C324,40,259.23,42.28,234.22,42.28S144.47,40,119.69,34.4a223.07,223.07,0,0,1-37.5-12.58C69.43,16.41,55.25,8.65,44.68-5Z" transform="translate(0 9.24)"/><path class="cls-39" d="M46.08-8.54c10.39,13.45,36,20.06,48.51,25.37,12.1,5.12,34.45,8.75,46.8,11.52,24.35,5.47,68.25,7.75,92.82,7.75s68.48-2.28,92.83-7.75c12.35-2.77,34.7-6.4,46.8-11.52C386.38,11.52,412,4.91,422.36-8.54v3.47C412,8.37,398.05,16,385.51,21.32,373.41,26.44,361,31,348.67,33.76c-24.35,5.47-89.88,7.74-114.45,7.75s-90.1-2.28-114.45-7.75C107.42,31,95,26.48,82.92,21.36c-12.53-5.31-26.45-13-36.84-26.43Z" transform="translate(0 9.24)"/><path class="cls-40" d="M47.48-8.51c10.2,13.2,35.89,19.69,48.2,24.91,11.88,5,34.32,8.59,46.45,11.32,23.92,5.37,68,7.6,92.08,7.61s68.17-2.24,92.09-7.61c12.13-2.73,34.57-6.29,46.45-11.32,12.31-5.22,38-11.71,48.21-24.91v3.4c-10.2,13.21-23.87,20.76-36.18,26-11.89,5-24.06,9.53-36.19,12.26-23.92,5.37-90.23,7.61-114.37,7.61s-90.46-2.24-114.37-7.61c-12.13-2.73-24.3-7.19-36.19-12.22-12.31-5.21-26-12.8-36.18-26Z" transform="translate(0 9.24)"/><path class="cls-41" d="M48.87-8.49c10,13,35.82,19.33,47.9,24.45C108.44,20.9,131,24.4,142.86,27.08c23.49,5.27,67.65,7.47,91.35,7.47s67.87-2.2,91.36-7.47C337.48,24.4,360,20.9,371.66,16c12.08-5.12,37.89-11.49,47.9-24.45v3.34c-10,13-23.44,20.43-35.52,25.55-11.67,4.94-23.62,9.41-35.53,12.08C325,37.76,257.92,40,234.22,40s-90.81-2.2-114.29-7.48c-11.91-2.67-23.86-7.09-35.53-12C72.31,15.32,58.89,7.82,48.87-5.14Z" transform="translate(0 9.24)"/><path class="cls-42" d="M50.27-8.47c9.83,12.72,35.73,19,47.59,24,11.46,4.85,34.05,8.28,45.74,10.91,23.05,5.18,67.35,7.33,90.61,7.33s67.57-2.15,90.62-7.33c11.69-2.63,34.28-6.06,45.73-10.91,11.87-5,37.78-11.28,47.61-24v3.29c-9.83,12.72-23,20.1-34.87,25.12-11.45,4.85-23.18,9.28-34.87,11.91-23.05,5.17-90.95,7.33-114.21,7.33S143.06,37,120,31.85c-11.69-2.63-23.42-7-34.87-11.86C73.28,15,60.1,7.54,50.27-5.18Z" transform="translate(0 9.24)"/><path class="cls-43" d="M51.67-8.45C61.31,4,87.32,10.17,99,15.1c11.23,4.76,33.91,8.13,45.38,10.7,22.61,5.08,67,7.2,89.87,7.2s67.27-2.12,89.88-7.2c11.47-2.57,34.15-5.94,45.38-10.7C381.11,10.17,407.13,4,416.77-8.45v3.23c-9.64,12.48-22.57,19.77-34.21,24.71-11.24,4.75-22.74,9.14-34.21,11.72C325.74,36.29,257,38.4,234.22,38.4s-91.52-2.11-114.13-7.19c-11.47-2.58-23-6.92-34.21-11.68C74.24,14.6,61.31,7.27,51.67-5.22Z" transform="translate(0 9.24)"/><path class="cls-44" d="M53.06-8.43c9.46,12.24,35.57,18.26,47,23.1,11,4.66,33.77,8,45,10.5,22.18,5,66.76,7,89.14,7s67-2.07,89.15-7c11.25-2.53,34-5.84,45-10.5,11.42-4.84,37.54-10.86,47-23.1v3.17C405.92,7,393.24,14.19,381.82,19c-11,4.66-22.3,9-33.55,11.54-22.18,5-91.67,7.06-114,7.06s-91.87-2.08-114-7.06C108.92,28,97.64,23.74,86.62,19.07,75.2,14.23,62.52,7,53.06-5.25Z" transform="translate(0 9.24)"/><path class="cls-45" d="M54.46-8.41C63.73,3.6,90,9.5,101.14,14.24c10.8,4.57,33.64,7.81,44.67,10.29,21.74,4.88,66.46,6.92,88.4,6.92s66.67-2,88.41-6.92c11-2.48,33.86-5.72,44.67-10.29C378.48,9.5,404.71,3.6,414-8.41v3.12c-9.27,12-21.7,19.11-32.9,23.86-10.8,4.57-21.86,8.88-32.89,11.36-21.75,4.89-92,6.92-114,6.92s-92.23-2-114-6.92c-11-2.48-22.09-6.74-32.9-11.32C76.16,13.87,63.73,6.71,54.46-5.29Z" transform="translate(0 9.24)"/><path class="cls-46" d="M55.86-8.39c9.08,11.77,35.4,17.55,46.37,22.2,10.59,4.48,33.51,7.65,44.31,10.08,21.31,4.79,66.17,6.78,87.67,6.78s66.37-2,87.67-6.78c10.81-2.43,33.73-5.6,44.32-10.08,11-4.65,37.3-10.43,46.38-22.2v3.06c-9.08,11.76-21.27,18.79-32.24,23.44-10.58,4.48-21.43,8.76-32.23,11.19-21.31,4.78-92.39,6.77-113.89,6.78s-92.58-2-113.89-6.78c-10.81-2.43-21.65-6.66-32.24-11.14-11-4.65-23.15-11.72-32.23-23.49Z" transform="translate(0 9.24)"/><path class="cls-47" d="M57.25-8.36c8.9,11.52,35.33,17.18,46.07,21.73,10.38,4.4,33.37,7.5,44,9.88,20.87,4.69,65.87,6.64,86.93,6.65s66.07-2,86.94-6.65c10.59-2.38,33.58-5.48,44-9.88,10.75-4.55,37.18-10.21,46.09-21.73v3c-8.91,11.52-20.84,18.47-31.58,23-10.37,4.39-21,8.63-31.58,11-20.88,4.69-92.75,6.64-113.81,6.64s-92.94-1.95-113.81-6.64c-10.59-2.38-21.21-6.57-31.58-11C78.09,13.15,66.15,6.16,57.25-5.37Z" transform="translate(0 9.24)"/><path class="cls-48" d="M58.65-8.34C67.36,2.94,93.9,8.49,104.42,12.94c10.15,4.3,33.23,7.35,43.6,9.68,20.43,4.59,65.57,6.5,86.19,6.5s65.76-1.91,86.2-6.5c10.37-2.33,33.45-5.38,43.6-9.68,10.52-4.45,37.06-10,45.78-21.28v2.93c-8.72,11.29-20.4,18.14-30.92,22.6C368.71,21.49,358.31,25.69,348,28c-20.44,4.59-93.1,6.5-113.73,6.51S140.93,32.61,120.49,28c-10.36-2.33-20.77-6.48-30.92-10.78C79.05,12.78,67.36,5.88,58.65-5.4Z" transform="translate(0 9.24)"/><path class="cls-49" d="M60-8.32c8.54,11,35.17,16.47,45.47,20.83,9.94,4.21,33.1,7.19,43.24,9.47,20,4.49,65.27,6.36,85.46,6.36s65.46-1.87,85.47-6.36c10.14-2.28,33.3-5.26,43.24-9.47,10.3-4.36,36.94-9.79,45.47-20.83v2.88c-8.53,11-20,17.81-30.26,22.17-9.94,4.21-20.12,8.37-30.26,10.65-20,4.5-93.46,6.37-113.65,6.37s-93.64-1.87-113.65-6.37C110.43,25.1,100.25,21,90.31,16.78,80,12.42,68.58,5.6,60-5.44Z" transform="translate(0 9.24)"/><path class="cls-50" d="M61.44-8.3C69.79,2.5,96.53,7.81,106.6,12.08c9.72,4.12,33,7,42.89,9.26,19.57,4.4,65,6.23,84.72,6.23s65.16-1.83,84.73-6.23c9.93-2.23,33.16-5.14,42.89-9.26C371.9,7.81,398.65,2.5,407-8.3v2.82C398.65,5.32,387.46,12,377.39,16.27c-9.72,4.12-19.68,8.25-29.61,10.48C328.22,31.14,254,33,234.22,33s-94-1.83-113.57-6.22c-9.92-2.23-19.88-6.31-29.6-10.43C81,12.06,69.79,5.33,61.44-5.48Z" transform="translate(0 9.24)"/><path class="cls-51" d="M62.84-8.28C71,2.28,97.84,7.48,107.69,11.65c9.51,4,32.83,6.87,42.53,9,19.14,4.3,64.68,6.09,84,6.09s64.86-1.79,84-6.09c9.71-2.18,33-5,42.53-9,9.85-4.17,36.71-9.37,44.87-19.93v2.76c-8.16,10.56-19.1,17.16-29,21.33-9.5,4-19.24,8.12-28.95,10.3-19.13,4.3-94.17,6.09-113.48,6.09s-94.35-1.79-113.49-6.09c-9.7-2.18-19.44-6.22-28.94-10.24C81.94,11.69,71,5.05,62.84-5.51Z" transform="translate(0 9.24)"/><path class="cls-52" d="M64.23-8.26c8,10.33,34.93,15.4,44.55,19.48,9.29,3.93,32.7,6.72,42.18,8.85,18.7,4.2,64.38,5.95,83.25,5.95s64.56-1.75,83.26-5.95c9.48-2.13,32.88-4.92,42.17-8.85,9.63-4.08,36.59-9.15,44.56-19.48v2.7c-8,10.33-18.66,16.84-28.29,20.91-9.29,3.94-18.8,8-28.29,10.12-18.69,4.2-94.53,6-113.4,6s-94.71-1.75-113.41-6c-9.48-2.13-19-6.13-28.29-10.06-9.62-4.08-20.31-10.64-28.29-21Z" transform="translate(0 9.24)"/><path class="cls-53" d="M65.63-8.24c7.79,10.09,34.84,15,44.25,19,9.07,3.84,32.55,6.56,41.82,8.64,18.26,4.1,64.08,5.81,82.51,5.81s64.26-1.71,82.52-5.81c9.27-2.08,32.75-4.8,41.82-8.64,9.4-4,36.47-8.94,44.26-19v2.65C395,4.49,384.58,10.91,375.18,14.89c-9.08,3.85-18.37,7.86-27.64,10-18.26,4.1-94.89,5.8-113.32,5.81s-95.06-1.71-113.33-5.81c-9.26-2.09-18.55-6.05-27.63-9.89C83.86,11,73.42,4.49,65.63-5.59Z" transform="translate(0 9.24)"/><path class="cls-54" d="M67-8.21C74.63,1.63,101.79,6.47,111,10.35c8.86,3.75,32.42,6.41,41.46,8.44,17.83,4,63.79,5.67,81.78,5.68s64-1.67,81.79-5.68c9-2,32.6-4.69,41.46-8.44,9.18-3.88,36.35-8.72,44-18.56v2.58c-7.6,9.84-17.8,16.18-27,20.07-8.86,3.75-17.93,7.72-27,9.76-17.83,4-95.25,5.67-113.24,5.67S138.8,28.2,121,24.2c-9-2-18.12-6-27-9.71C84.82,10.6,74.63,4.22,67-5.63Z" transform="translate(0 9.24)"/><path class="cls-55" d="M68.42-8.19c7.42,9.6,34.69,14.32,43.64,18.11,8.64,3.66,32.28,6.25,41.11,8.24,17.39,3.9,63.49,5.53,81,5.53s63.66-1.63,81-5.53c8.82-2,32.46-4.58,41.11-8.24C365.32,6.13,392.6,1.41,400-8.19v2.52C392.6,3.93,382.65,10.18,373.7,14c-8.64,3.66-17.5,7.6-26.32,9.58C330,27.47,251.77,29.09,234.22,29.1s-95.77-1.63-113.16-5.54c-8.83-2-17.68-5.87-26.32-9.53C85.79,10.24,75.84,3.94,68.42-5.66Z" transform="translate(0 9.24)"/><path class="cls-56" d="M69.82-8.17c7.23,9.36,34.6,14,43.33,17.66,8.43,3.57,32.15,6.09,40.75,8,17,3.81,63.19,5.39,80.31,5.39s63.35-1.58,80.31-5.39c8.61-1.94,32.33-4.46,40.75-8,8.73-3.7,36.12-8.3,43.35-17.66v2.46C391.39,3.66,381.69,9.82,373,13.52c-8.43,3.56-17.06,7.47-25.66,9.4-17,3.81-96,5.4-113.08,5.4s-96.12-1.59-113.08-5.4c-8.61-1.93-17.24-5.78-25.66-9.34C86.75,9.88,77.05,3.66,69.82-5.7Z" transform="translate(0 9.24)"/><path class="cls-57" d="M71.22-8.15c7,9.12,34.52,13.61,43,17.21,8.21,3.48,32,5.94,40.4,7.82,16.52,3.71,62.89,5.26,79.57,5.26s63-1.55,79.58-5.26C322.17,15,346,12.54,354.18,9.06c8.51-3.6,36-8.09,43-17.21v2.41a62.52,62.52,0,0,1-25,18.8c-8.21,3.47-16.62,7.34-25,9.23-16.52,3.71-96.32,5.25-113,5.25s-96.48-1.54-113-5.25c-8.38-1.89-16.79-5.69-25-9.17a62.7,62.7,0,0,1-25-18.86Z" transform="translate(0 9.24)"/><path class="cls-58" d="M72.61-8.13C79.47.75,107.05,5.12,115.34,8.63c8,3.38,31.87,5.78,40,7.61,16.09,3.62,62.6,5.12,78.84,5.12s62.75-1.5,78.84-5.12c8.16-1.83,32-4.23,40-7.61C361.37,5.12,389,.75,395.83-8.13v2.35A61.15,61.15,0,0,1,371.48,12.6c-8,3.38-16.18,7.21-24.34,9-16.09,3.61-96.68,5.12-112.92,5.12s-96.83-1.51-112.92-5.12c-8.16-1.84-16.35-5.6-24.35-9A61.21,61.21,0,0,1,72.61-5.78Z" transform="translate(0 9.24)"/><path class="cls-59" d="M74-8.11C80.68.53,108.37,4.78,116.43,8.2c7.78,3.29,31.74,5.62,39.68,7.41,15.65,3.51,62.3,5,78.1,5s62.45-1.47,78.11-5c7.94-1.79,31.9-4.12,39.68-7.41,8.06-3.42,35.75-7.67,42.43-16.31v2.29a59.69,59.69,0,0,1-23.69,18C363,15.43,355,19.23,347.06,21c-15.65,3.52-97,5-112.84,5S137,24.53,121.38,21c-7.94-1.78-15.91-5.51-23.69-8.81A59.74,59.74,0,0,1,74-5.81Z" transform="translate(0 9.24)"/><path class="cls-60" d="M75.4-8.09C81.9.32,109.69,4.45,117.52,7.76c7.56,3.21,31.61,5.47,39.33,7.21,15.22,3.42,62,4.84,77.36,4.84s62.15-1.42,77.37-4.84c7.72-1.74,31.76-4,39.32-7.21C358.74,4.45,386.54.32,393-8.09v2.23a58.2,58.2,0,0,1-23,17.54c-7.57,3.2-15.31,7-23,8.69-15.22,3.42-97.4,4.84-112.76,4.85s-97.54-1.43-112.76-4.85c-7.72-1.73-15.47-5.42-23-8.62a58.57,58.57,0,0,1-23-17.6Z" transform="translate(0 9.24)"/><path class="cls-61" d="M76.8-8.07C83.11.1,111,4.11,118.61,7.33c7.35,3.11,31.47,5.32,39,7,14.79,3.32,61.71,4.7,76.63,4.71s61.85-1.39,76.63-4.71c7.5-1.68,31.63-3.89,39-7,7.61-3.22,35.52-7.23,41.83-15.4v2.18a56.83,56.83,0,0,1-22.37,17.11c-7.35,3.11-14.87,6.83-22.37,8.52-14.79,3.32-97.76,4.7-112.68,4.7s-97.9-1.38-112.68-4.7c-7.5-1.69-15-5.34-22.37-8.45A57.13,57.13,0,0,1,76.8-5.89Z" transform="translate(0 9.24)"/><path class="cls-62" d="M78.2-8C84.32-.12,112.32,3.77,119.7,6.9c7.13,3,31.34,5.16,38.62,6.79,14.35,3.23,61.41,4.57,75.89,4.57s61.55-1.34,75.9-4.57c7.28-1.63,31.48-3.77,38.61-6.79,7.39-3.13,35.4-7,41.52-14.94v2.11a55.39,55.39,0,0,1-21.71,16.69c-7.13,3-14.43,6.7-21.71,8.34-14.35,3.22-98.12,4.56-112.6,4.57S136,22.32,121.62,19.1c-7.28-1.64-14.58-5.25-21.71-8.27A55.57,55.57,0,0,1,78.2-5.92Z" transform="translate(0 9.24)"/><path class="cls-63" d="M79.59-8c5.94,7.68,34,11.46,41.21,14.49,6.91,2.93,31.2,5,38.25,6.59,13.92,3.12,61.12,4.42,75.16,4.42s61.25-1.3,75.16-4.42c7.06-1.59,31.34-3.66,38.26-6.59,7.16-3,35.28-6.81,41.21-14.49V-6a53.93,53.93,0,0,1-21,16.27c-6.91,2.93-14,6.57-21.05,8.16-13.92,3.13-98.48,4.43-112.52,4.43s-98.6-1.3-112.52-4.43c-7.06-1.59-14.14-5.16-21-8.09A54.14,54.14,0,0,1,79.59-6Z" transform="translate(0 9.24)"/><path class="cls-64" d="M81-8c5.75,7.44,34,11.1,40.9,14,6.7,2.83,31.06,4.84,37.9,6.38,13.48,3,60.81,4.29,74.42,4.29s60.94-1.26,74.42-4.29c6.84-1.54,31.21-3.55,37.91-6.38,6.94-2.94,35.16-6.6,40.91-14v2a52.5,52.5,0,0,1-20.4,15.85c-6.7,2.84-13.56,6.45-20.39,8-13.48,3-98.84,4.29-112.44,4.29s-99-1.26-112.44-4.29c-6.84-1.53-13.7-5.07-20.39-7.91A52.78,52.78,0,0,1,81-6Z" transform="translate(0 9.24)"/><path class="cls-65" d="M82.39-8C88-.78,116.26,2.76,123,5.61c6.48,2.74,30.93,4.68,37.55,6.17,13,2.93,60.51,4.15,73.68,4.15s60.64-1.22,73.69-4.15c6.62-1.49,31.06-3.43,37.54-6.17C352.16,2.76,380.49-.78,386.05-8V-6A51.16,51.16,0,0,1,366.31,9.39c-6.48,2.74-13.12,6.31-19.73,7.8-13.05,2.93-99.2,4.15-112.36,4.15s-99.31-1.22-112.36-4.15c-6.62-1.49-13.25-5-19.74-7.73A51.33,51.33,0,0,1,82.39-6Z" transform="translate(0 9.24)"/><path class="cls-66" d="M83.78-8c5.38,7,33.8,10.39,40.29,13.14,6.27,2.65,30.8,4.53,37.19,6,12.61,2.84,60.22,4,73,4s60.34-1.18,73-4c6.4-1.43,30.93-3.31,37.19-6C350.84,2.43,379.28-1,384.65-8v1.88a49.68,49.68,0,0,1-19.07,15c-6.27,2.65-12.69,6.18-19.08,7.62-12.61,2.83-99.55,4-112.28,4s-99.67-1.18-112.28-4c-6.39-1.44-12.81-4.9-19.08-7.55A50,50,0,0,1,83.78-6.07Z" transform="translate(0 9.24)"/><path class="cls-67" d="M85.18-7.94c5.19,6.73,33.72,10,40,12.68,6.05,2.57,30.66,4.38,36.84,5.77,12.17,2.73,59.92,3.87,72.21,3.87s60-1.14,72.22-3.87c6.17-1.39,30.78-3.2,36.83-5.77,6.27-2.65,34.81-5.95,40-12.68v1.82A48.43,48.43,0,0,1,364.84,8.47c-6,2.56-12.25,6-18.42,7.44-12.18,2.74-99.91,3.88-112.2,3.88s-100-1.14-112.2-3.88c-6.17-1.39-12.37-4.81-18.42-7.37A48.55,48.55,0,0,1,85.18-6.11Z" transform="translate(0 9.24)"/><path class="cls-68" d="M86.58-7.92c5,6.49,33.63,9.67,39.68,12.23,5.83,2.47,30.52,4.22,36.47,5.56,11.74,2.64,59.63,3.73,71.48,3.74s59.74-1.1,71.48-3.74c6-1.34,30.64-3.09,36.48-5.56,6-2.56,34.68-5.74,39.69-12.23v1.77A47,47,0,0,1,364.1,8c-5.84,2.47-11.81,5.93-17.77,7.26C334.59,17.91,246.07,19,234.22,19s-100.38-1.1-112.12-3.74c-5.95-1.33-11.93-4.72-17.76-7.19A47.1,47.1,0,0,1,86.58-6.15Z" transform="translate(0 9.24)"/><path class="cls-69" d="M88-7.89c4.82,6.24,33.56,9.31,39.38,11.77,5.61,2.38,30.38,4.06,36.12,5.35,11.31,2.54,59.33,3.6,70.74,3.6s59.44-1.06,70.74-3.6c5.74-1.29,30.51-3,36.13-5.35,5.81-2.46,34.56-5.53,39.39-11.77v1.7C375.64.05,369.18,5.08,363.36,7.55c-5.62,2.38-11.37,5.8-17.11,7.09-11.3,2.54-100.62,3.59-112,3.59s-100.73-1.05-112-3.59c-5.73-1.29-11.48-4.64-17.1-7C99.26,5.16,92.79.06,88-6.19Z" transform="translate(0 9.24)"/><path class="cls-70" d="M89.37-7.87c4.63,6,33.47,9,39.07,11.32,5.4,2.29,30.25,3.91,35.77,5.15,10.87,2.44,59,3.45,70,3.45s59.14-1,70-3.45c5.51-1.24,30.36-2.86,35.76-5.15,5.6-2.37,34.45-5.32,39.09-11.32v1.64c-4.64,6-10.85,11-16.45,13.32-5.4,2.29-10.93,5.67-16.45,6.91-10.87,2.44-101,3.46-112,3.46s-101.08-1-112-3.46c-5.51-1.24-11-4.55-16.44-6.83C100.22,4.8,94-.22,89.37-6.22Z" transform="translate(0 9.24)"/><path class="cls-71" d="M90.76-7.85C95.22-2.09,124.16.74,129.53,3c5.19,2.19,30.12,3.75,35.41,4.94,10.44,2.34,58.74,3.32,69.27,3.32s58.84-1,69.27-3.32c5.3-1.19,30.23-2.75,35.41-4.94,5.37-2.28,34.33-5.11,38.78-10.87v1.58c-4.45,5.76-10.41,10.62-15.79,12.9-5.18,2.2-10.49,5.54-15.79,6.73-10.43,2.35-101.34,3.32-111.87,3.32s-101.44-1-111.88-3.32c-5.29-1.19-10.6-4.46-15.79-6.65-5.37-2.28-11.33-7.21-15.79-13Z" transform="translate(0 9.24)"/><path class="cls-72" d="M92.16-7.83C96.43-2.31,125.47.41,130.62,2.59c5,2.1,30,3.59,35.06,4.73,10,2.25,58.43,3.18,68.53,3.18s58.53-.93,68.54-3.18c5.07-1.14,30.08-2.63,35.05-4.73C343,.41,372-2.31,376.28-7.83V-6.3C372-.78,366.29,4,361.14,6.17c-5,2.11-10.05,5.41-15.13,6.56-10,2.24-101.7,3.18-111.79,3.18S132.43,15,122.43,12.73c-5.08-1.15-10.17-4.38-15.14-6.48-5.15-2.18-10.86-7-15.13-12.55Z" transform="translate(0 9.24)"/><path class="cls-73" d="M93.56-7.81c4.08,5.28,33.23,7.88,38.16,10,4.75,2,29.84,3.43,34.69,4.52,9.57,2.15,58.14,3.05,67.8,3.05s58.23-.9,67.8-3.05c4.85-1.09,29.94-2.51,34.7-4.52,4.92-2.09,34.09-4.69,38.17-10v1.47c-4.08,5.28-9.55,10-14.47,12.05-4.76,2-9.63,5.29-14.48,6.38-9.56,2.15-102.06,3-111.71,3s-102.15-.89-111.71-3C117.65,11,112.78,7.81,108,5.79,103.11,3.71,97.64-1,93.56-6.34Z" transform="translate(0 9.24)"/><path class="cls-74" d="M95-7.79c3.9,5,33.16,7.52,37.86,9.51,4.53,1.92,29.71,3.28,34.34,4.33C176.28,8.1,225,9,234.21,9s57.93-.85,67.06-2.9c4.64-1,29.81-2.41,34.34-4.33,4.7-2,34-4.47,37.87-9.51v1.41c-3.89,5-9.11,9.64-13.81,11.63-4.54,1.92-9.19,5.16-13.82,6.2-9.13,2.05-102.42,2.91-111.63,2.91s-102.5-.86-111.63-2.91c-4.64-1-9.28-4.19-13.82-6.12-4.7-2-9.92-6.66-13.82-11.7Z" transform="translate(0 9.24)"/><path class="cls-75" d="M96.35-7.77C100.06-3,129.42-.6,133.9,1.29c4.32,1.83,29.57,3.13,34,4.12,8.7,2,57.55,2.77,66.33,2.77s57.63-.82,66.33-2.77c4.41-1,29.66-2.29,34-4.12C339-.6,368.38-3,372.09-7.77v1.35c-3.71,4.81-8.68,9.32-13.16,11.21-4.32,1.83-8.75,5-13.16,6-8.7,2-102.77,2.77-111.55,2.77s-102.86-.81-111.55-2.77c-4.41-1-8.84-4.1-13.16-5.93C105,3,100.06-1.61,96.35-6.41Z" transform="translate(0 9.24)"/><path class="cls-76" d="M97.75-7.74c3.52,4.56,33,6.8,37.24,8.6s29.44,3,33.63,3.91c8.26,1.86,57.25,2.63,65.59,2.63s57.33-.77,65.59-2.63C304,3.83,329.32,2.6,333.43.86s33.74-4,37.26-8.6v1.29c-3.52,4.56-8.25,9-12.5,10.78s-8.31,4.9-12.5,5.85C337.43,12,242.56,12.8,234.22,12.8S131,12,122.75,10.18c-4.19-.95-8.4-4-12.5-5.76-4.26-1.8-9-6.31-12.5-10.87Z" transform="translate(0 9.24)"/><path class="cls-77" d="M99.14-7.72c3.34,4.32,32.91,6.44,36.94,8.15s29.31,2.81,33.28,3.7c7.82,1.76,56.95,2.49,64.85,2.49s57-.73,64.86-2.49c4-.89,29.38-2,33.27-3.7s33.62-3.83,37-8.15v1.23C366-2.17,361.48,2.17,357.45,3.88s-7.87,4.77-11.84,5.66C337.78,11.3,242.12,12,234.22,12S130.66,11.3,122.83,9.54c-4-.89-8-3.93-11.84-5.58S102.48-2.16,99.14-6.48Z" transform="translate(0 9.24)"/><path class="cls-78" d="M100.54-7.7c3.15,4.08,32.83,6.09,36.63,7.7s29.17,2.65,32.92,3.5c7.39,1.66,56.66,2.35,64.12,2.35s56.73-.69,64.12-2.35c3.75-.85,29.24-1.95,32.92-3.5s33.5-3.62,36.65-7.7v1.17c-3.15,4.08-7.38,8.33-11.19,10s-7.43,4.64-11.18,5.48c-7.39,1.66-103.85,2.35-111.31,2.35S130.3,10.56,122.91,8.9c-3.75-.84-7.51-3.84-11.19-5.4s-8-5.94-11.18-10Z" transform="translate(0 9.24)"/><path class="cls-79" d="M101.94-7.68c3,3.84,32.75,5.73,36.33,7.25s29,2.5,32.56,3.29c7,1.56,56.35,2.21,63.38,2.21s56.43-.65,63.38-2.21C301.12,2.07,326.7,1,330.15-.43s33.38-3.41,36.35-7.25v1.11c-3,3.85-6.94,8-10.52,9.53s-7,4.51-10.53,5.3c-7,1.57-104.21,2.22-111.23,2.22S130,9.83,123,8.26c-3.53-.79-7.07-3.75-10.53-5.21s-7.56-5.77-10.52-9.61Z" transform="translate(0 9.24)"/><path class="cls-80" d="M103.33-7.66c2.78,3.6,32.67,5.37,36,6.79s28.9,2.35,32.2,3.09c6.53,1.47,56.06,2.08,62.65,2.08s56.12-.61,62.65-2.08c3.31-.74,29-1.71,32.2-3.09s33.26-3.19,36.05-6.79V-6.6c-2.79,3.6-6.52,7.68-9.87,9.1s-6.56,4.38-9.87,5.13C338.85,9.09,240.8,9.7,234.22,9.7S129.59,9.09,123.07,7.63c-3.31-.75-6.63-3.67-9.87-5S106.11-3,103.33-6.6Z" transform="translate(0 9.24)"/><path class="cls-81" d="M104.73-7.64c2.59,3.36,32.59,5,35.72,6.34S169.21.89,172.3,1.58c6.09,1.37,55.76,1.94,61.91,1.94S290,3,296.12,1.58C299.21.89,324.94,0,328-1.3s33.14-3,35.74-6.34v1C361.11-3.28,357.63.71,354.5,2s-6.12,4.26-9.21,5C339.2,8.36,240.36,8.93,234.22,8.93S129.24,8.36,123.15,7c-3.09-.69-6.19-3.58-9.21-4.86s-6.62-5.4-9.21-8.76Z" transform="translate(0 9.24)"/><path class="cls-82" d="M106.12-7.62C108.54-4.5,138.63-3,141.54-1.73S170.17.3,173,1c5.65,1.27,55.46,1.8,61.17,1.8s55.52-.53,61.17-1.8c2.87-.65,28.69-1.49,31.5-2.68s33-2.77,35.43-5.89v.94c-2.41,3.12-5.64,7-8.55,8.26s-5.69,4.13-8.55,4.77c-5.66,1.27-105.29,1.8-111,1.8s-105.34-.53-111-1.8c-2.87-.64-5.74-3.49-8.55-4.68s-6.14-5.22-8.56-8.34Z" transform="translate(0 9.24)"/><path class="cls-83" d="M107.52-7.59C109.75-4.71,140-3.3,142.63-2.16S171.12-.29,173.77.31C179,1.48,228.94,2,234.21,2s55.22-.49,60.44-1.66c2.65-.6,28.54-1.37,31.13-2.47s32.91-2.55,35.14-5.43v.87c-2.23,2.89-5.21,6.7-7.9,7.84s-5.25,4-7.89,4.59c-5.22,1.18-105.64,1.66-110.91,1.66S128.53,6.89,123.31,5.71c-2.65-.59-5.3-3.4-7.89-4.5s-5.67-5-7.9-7.92Z" transform="translate(0 9.24)"/><path class="cls-84" d="M108.92-7.57c2,2.64,32.34,3.94,34.81,5S172.08-.87,174.51-.33c4.78,1.08,54.87,1.52,59.7,1.52s54.92-.44,59.7-1.52c2.43-.54,28.41-1.26,30.78-2.26s32.79-2.34,34.83-5v.82c-2,2.64-4.77,6.37-7.24,7.41s-4.81,3.87-7.23,4.42c-4.79,1.07-106,1.52-110.83,1.52s-106-.45-110.83-1.52c-2.42-.55-4.86-3.32-7.24-4.32S111-4.1,108.92-6.75Z" transform="translate(0 9.24)"/><path class="cls-85" d="M110.31-7.55C112.17-5.15,142.58-4,144.82-3S173-1.46,175.24-1c4.35,1,54.58,1.38,59,1.38S288.83,0,293.18-1c2.2-.5,28.26-1.15,30.42-2.06s32.67-2.13,34.52-4.53v.76c-1.85,2.4-4.34,6-6.58,7S347.17,3.94,345,4.44c-4.35,1-106.36,1.38-110.75,1.38s-106.4-.4-110.75-1.38c-2.2-.5-4.42-3.23-6.58-4.14s-4.72-4.68-6.58-7.08Z" transform="translate(0 9.24)"/><path class="cls-86" d="M111.71-7.53c1.67,2.16,32.19,3.22,34.2,4.08S174-2,176-1.6c3.91.88,54.28,1.24,58.23,1.24s54.32-.36,58.23-1.24c2-.45,28.12-1,30.07-1.85s32.55-1.92,34.22-4.08v.7c-1.67,2.16-3.91,5.72-5.92,6.57s-3.94,3.62-5.93,4.06C341,4.68,238.17,5.05,234.22,5.05S127.47,4.68,123.55,3.8c-2-.44-4-3.14-5.92-4s-4.25-4.5-5.92-6.66Z" transform="translate(0 9.24)"/><path class="cls-87" d="M113.11-7.51c1.48,1.92,32.1,2.87,33.89,3.62S175-2.64,176.71-2.24c3.48.78,54,1.11,57.5,1.11s54-.33,57.49-1.11c1.77-.4,28-.91,29.72-1.65s32.43-1.7,33.91-3.62v.64c-1.48,1.93-3.47,5.4-5.26,6.15s-3.5,3.49-5.27,3.89c-3.47.78-107.07,1.1-110.58,1.1S127.11,4,123.63,3.17c-1.76-.4-3.53-3.06-5.26-3.79s-3.78-4.32-5.26-6.24Z" transform="translate(0 9.24)"/><path class="cls-88" d="M114.5-7.49c1.3,1.68,32,2.51,33.59,3.17s27.82,1.1,29.36,1.44c3,.69,53.68,1,56.75,1s53.72-.28,56.77-1c1.54-.34,27.84-.8,29.35-1.44s32.32-1.49,33.61-3.17v.59c-1.29,1.68-3,5.06-4.6,5.73s-3.06,3.35-4.61,3.7c-3,.68-107.43,1-110.5,1s-107.46-.29-110.51-1c-1.54-.35-3.09-3-4.6-3.61s-3.31-4.13-4.61-5.81Z" transform="translate(0 9.24)"/><path class="cls-89" d="M115.9-7.47C117-6,147.84-5.32,149.19-4.75s27.67.94,29,1.24c2.61.58,53.38.83,56,.83s53.42-.25,56-.83c1.33-.3,27.7-.69,29-1.24S351.43-6,352.54-7.47v.53c-1.11,1.44-2.61,4.74-4,5.31S346,1.59,344.64,1.89c-2.61.59-107.79.83-110.42.83S126.4,2.48,123.79,1.89c-1.32-.3-2.65-2.87-3.94-3.42s-2.84-4-3.95-5.4Z" transform="translate(0 9.24)"/><path class="cls-90" d="M117.3-7.45c.92,1.21,31.86,1.8,33,2.27s27.54.78,28.64,1c2.18.49,53.09.69,55.28.69s53.12-.2,55.3-.69c1.1-.25,27.56-.57,28.64-1s32.07-1.06,33-2.27V-7c-.93,1.2-2.17,4.41-3.29,4.89s-2.18,3.1-3.29,3.34c-2.17.49-108.15.69-110.34.69s-108.17-.2-110.34-.69C122.77,1,121.67-1.53,120.59-2s-2.37-3.78-3.29-5Z" transform="translate(0 9.24)"/><path class="cls-91" d="M118.69-7.42c.74,1,31.78,1.43,32.68,1.81s27.41.62,28.29.82c1.74.39,52.79.55,54.54.55S287-4.4,288.76-4.79c.88-.2,27.42-.46,28.29-.82s31.95-.85,32.7-1.81V-7C349-6,348-2.93,347.11-2.55s-1.75,3-2.63,3.17c-1.74.39-108.51.55-110.26.55S125.7,1,124,.62c-.89-.2-1.77-2.7-2.64-3.07S119.43-6,118.69-7Z" transform="translate(0 9.24)"/><path class="cls-92" d="M120.09-7.4c.56.72,31.7,1.07,32.37,1.36s27.27.46,27.93.61c1.31.3,52.5.42,53.81.42s52.52-.12,53.82-.42c.67-.15,27.29-.34,27.93-.61s31.84-.64,32.4-1.36V-7c-.56.72-1.3,3.75-2,4s-1.32,2.84-2,3c-1.3.29-108.86.41-110.18.41S125.34.27,124,0c-.67-.15-1.33-2.61-2-2.89s-1.41-3.41-2-4.13Z" transform="translate(0 9.24)"/><path class="cls-93" d="M121.49-7.38c.37.48,31.62.72,32.06.9s27.14.32,27.58.42c.87.19,52.2.27,53.07.27s52.22-.08,53.09-.27c.44-.1,27.14-.23,27.57-.42s31.72-.42,32.09-.9v.29c-.37.48-.87,3.43-1.31,3.62s-.88,2.71-1.32,2.81c-.87.2-109.22.28-110.1.28S125-.46,124.12-.66c-.44-.1-.89-2.52-1.32-2.71s-.94-3.23-1.31-3.71Z" transform="translate(0 9.24)"/><path class="cls-94" d="M122.88-7.36c.19.24,31.54.36,31.77.45s27,.16,27.22.21c.43.1,51.89.14,52.33.14s51.92,0,52.35-.14c.22,0,27-.12,27.22-.21s31.6-.21,31.79-.45v.23c-.19.24-.44,3.11-.66,3.2s-.44,2.58-.66,2.63c-.43.1-109.58.14-110,.14s-109.59,0-110-.14c-.22-.05-.44-2.43-.66-2.52s-.47-3.06-.66-3.3Z" transform="translate(0 9.24)"/><rect x="124.28" y="1.9" width="219.88" height="5.4"/></g></g></g></g></g></g></svg>