<svg width="16" height="20" viewBox="0 0 16 20" fill="none" xmlns="http://www.w3.org/2000/svg">
<path d="M14.2649 2.60782C12.057 0.400012 8.46173 0.400012 6.25627 2.60782L0.139084 8.72032C0.0992405 8.76017 0.0781467 8.81407 0.0781467 8.87032C0.0781467 8.92657 0.0992405 8.98048 0.139084 9.02032L1.00393 9.88517C1.04346 9.92453 1.09697 9.94662 1.15276 9.94662C1.20854 9.94662 1.26205 9.92453 1.30158 9.88517L7.41877 3.77267C8.17814 3.01329 9.18829 2.59611 10.2617 2.59611C11.3352 2.59611 12.3453 3.01329 13.1024 3.77267C13.8617 4.53204 14.2789 5.5422 14.2789 6.61329C14.2789 7.68673 13.8617 8.69454 13.1024 9.45392L6.86798 15.6859L5.85783 16.6961C4.9133 17.6406 3.37814 17.6406 2.43361 16.6961C1.97658 16.2391 1.7258 15.632 1.7258 14.9852C1.7258 14.3383 1.97658 13.7313 2.43361 13.2742L8.61876 7.09142C8.7758 6.93673 8.98204 6.85001 9.20236 6.85001H9.2047C9.42501 6.85001 9.62892 6.93673 9.78361 7.09142C9.94064 7.24845 10.025 7.4547 10.025 7.67501C10.025 7.89298 9.93829 8.09923 9.78361 8.25392L4.72814 13.3047C4.6883 13.3445 4.6672 13.3984 4.6672 13.4547C4.6672 13.511 4.6883 13.5649 4.72814 13.6047L5.59299 14.4695C5.63252 14.5089 5.68603 14.531 5.74181 14.531C5.7976 14.531 5.85111 14.5089 5.89064 14.4695L10.9438 9.41642C11.4102 8.95001 11.6656 8.33126 11.6656 7.67267C11.6656 7.01407 11.4078 6.39298 10.9438 5.92892C9.98048 4.96564 8.41486 4.96798 7.45158 5.92892L6.85158 6.53126L1.26877 12.1117C0.889859 12.4884 0.589502 12.9366 0.38512 13.4302C0.180737 13.9239 0.0763961 14.4532 0.0781467 14.9875C0.0781467 16.0727 0.502365 17.0922 1.26877 17.8586C2.0633 18.6508 3.10393 19.0469 4.14455 19.0469C5.18517 19.0469 6.2258 18.6508 7.01798 17.8586L14.2649 10.6164C15.3313 9.54767 15.9219 8.12501 15.9219 6.61329C15.9242 5.09923 15.3336 3.67657 14.2649 2.60782Z" fill="white" fill-opacity="0.65"/>
</svg>
