<svg width="21" height="21" viewBox="0 0 21 21" fill="none" xmlns="http://www.w3.org/2000/svg">
<path d="M8.25 8.99999C8.25473 8.83292 8.2259 8.66661 8.16524 8.51088C8.10457 8.35516 8.01329 8.21318 7.8968 8.09334C7.7803 7.9735 7.64096 7.87824 7.48701 7.8132C7.33306 7.74815 7.16763 7.71463 7.0005 7.71463C6.83337 7.71463 6.66794 7.74815 6.51399 7.8132C6.36004 7.87824 6.2207 7.9735 6.10421 8.09334C5.98771 8.21318 5.89643 8.35516 5.83576 8.51088C5.7751 8.66661 5.74627 8.83292 5.751 8.99999C5.7602 9.32525 5.89588 9.63411 6.1292 9.86093C6.36253 10.0877 6.6751 10.2146 7.0005 10.2146C7.3259 10.2146 7.63847 10.0877 7.87179 9.86093C8.10512 9.63411 8.2408 9.32525 8.25 8.99999ZM14.25 8.99999C14.2547 8.83292 14.2259 8.66661 14.1652 8.51088C14.1046 8.35516 14.0133 8.21318 13.8968 8.09334C13.7803 7.9735 13.641 7.87824 13.487 7.8132C13.3331 7.74815 13.1676 7.71463 13.0005 7.71463C12.8334 7.71463 12.6679 7.74815 12.514 7.8132C12.36 7.87824 12.2207 7.9735 12.1042 8.09334C11.9877 8.21318 11.8964 8.35516 11.8358 8.51088C11.7751 8.66661 11.7463 8.83292 11.751 8.99999C11.7602 9.32525 11.8959 9.63411 12.1292 9.86093C12.3625 10.0877 12.6751 10.2146 13.0005 10.2146C13.3259 10.2146 13.6385 10.0877 13.8718 9.86093C14.1051 9.63411 14.2408 9.32525 14.25 8.99999ZM8.136 14.106C7.96556 14.0059 7.76253 13.9772 7.57103 14.0261C7.37953 14.0749 7.21504 14.1973 7.11333 14.3668C7.01161 14.5362 6.98088 14.739 7.02782 14.9309C7.07476 15.1229 7.19557 15.2886 7.364 15.392C8.131 15.852 9.084 16.062 10 16.062C10.916 16.062 11.87 15.852 12.636 15.392C12.7215 15.3418 12.7962 15.2752 12.8557 15.196C12.9153 15.1168 12.9586 15.0265 12.9831 14.9305C13.0076 14.8345 13.0128 14.7345 12.9984 14.6364C12.9841 14.5384 12.9504 14.4441 12.8994 14.3591C12.8484 14.2742 12.781 14.2001 12.7012 14.1414C12.6214 14.0826 12.5308 14.0402 12.4345 14.0166C12.3382 13.9931 12.2382 13.9889 12.1403 14.0042C12.0424 14.0195 11.9485 14.0541 11.864 14.106C11.381 14.396 10.71 14.562 10 14.562C9.29 14.562 8.62 14.396 8.136 14.106ZM20.002 11C20.002 5.47599 15.524 0.997986 10 0.997986C4.476 0.997986 1.6749e-07 5.47599 1.6749e-07 11C-0.000999833 16.523 4.476 21 10 21C15.524 21 20.002 16.522 20.002 10.999V11ZM1.499 11C1.48681 9.87579 1.6977 8.76035 2.11947 7.7182C2.54124 6.67606 3.16552 5.72792 3.95617 4.92865C4.74681 4.12938 5.68813 3.49486 6.72564 3.06181C7.76315 2.62876 8.87624 2.40578 10.0005 2.40578C11.1248 2.40578 12.2379 2.62876 13.2754 3.06181C14.3129 3.49486 15.2542 4.12938 16.0448 4.92865C16.8355 5.72792 17.4598 6.67606 17.8815 7.7182C18.3033 8.76035 18.5142 9.87579 18.502 11C18.4777 13.2388 17.5713 15.3776 15.9796 16.9521C14.3879 18.5266 12.2394 19.4098 10.0005 19.4098C7.7616 19.4098 5.61307 18.5266 4.02137 16.9521C2.42966 15.3776 1.52328 13.2388 1.499 11Z" fill="white" fill-opacity="0.65"/>
</svg>
