<svg width="28" height="26" viewBox="0 0 28 26" fill="red" xmlns="http://www.w3.org/2000/svg">
<path d="M26.8438 5.86248C26.4249 4.8926 25.8209 4.0137 25.0656 3.27499C24.3098 2.53407 23.4186 1.94527 22.4406 1.54062C21.4265 1.11934 20.3388 0.903714 19.2406 0.906241C17.7 0.906241 16.1969 1.32812 14.8906 2.12499C14.5781 2.31561 14.2813 2.52499 14 2.75311C13.7188 2.52499 13.4219 2.31561 13.1094 2.12499C11.8031 1.32812 10.3 0.906241 8.75938 0.906241C7.65 0.906241 6.575 1.11874 5.55938 1.54062C4.57813 1.94686 3.69375 2.53124 2.93438 3.27499C2.17811 4.01287 1.57399 4.89198 1.15625 5.86248C0.721875 6.87186 0.5 7.94373 0.5 9.04685C0.5 10.0875 0.7125 11.1719 1.13438 12.275C1.4875 13.1968 1.99375 14.1531 2.64063 15.1187C3.66563 16.6468 5.075 18.2406 6.825 19.8562C9.725 22.5343 12.5969 24.3843 12.7188 24.4593L13.4594 24.9343C13.7875 25.1437 14.2094 25.1437 14.5375 24.9343L15.2781 24.4593C15.4 24.3812 18.2688 22.5343 21.1719 19.8562C22.9219 18.2406 24.3313 16.6468 25.3563 15.1187C26.0031 14.1531 26.5125 13.1968 26.8625 12.275C27.2844 11.1719 27.4969 10.0875 27.4969 9.04685C27.5 7.94373 27.2781 6.87186 26.8438 5.86248ZM14 22.4625C14 22.4625 2.875 15.3343 2.875 9.04685C2.875 5.86248 5.50938 3.28124 8.75938 3.28124C11.0438 3.28124 13.025 4.55624 14 6.41873C14.975 4.55624 16.9563 3.28124 19.2406 3.28124C22.4906 3.28124 25.125 5.86248 25.125 9.04685C25.125 15.3343 14 22.4625 14 22.4625Z" fill="yellow" fill-opacity="0.87"/>
</svg>
