<svg width="18" height="20" viewBox="0 0 18 20" fill="none" xmlns="http://www.w3.org/2000/svg">
<path d="M2.84304 2.568C4.47598 0.93506 6.69072 0.0176849 9.00004 0.0176849C11.3094 0.0176849 13.5241 0.93506 15.157 2.568C16.79 4.20094 17.7074 6.41568 17.7074 8.725C17.7074 11.0343 16.79 13.2491 15.157 14.882L13.97 16.056C13.095 16.914 11.96 18.018 10.564 19.368C10.1445 19.7737 9.58368 20.0005 9.00004 20.0005C8.41641 20.0005 7.85562 19.7737 7.43604 19.368L3.94505 15.972C3.50605 15.541 3.13905 15.178 2.84304 14.882C2.03446 14.0735 1.39305 13.1136 0.955443 12.0572C0.517837 11.0007 0.292603 9.86847 0.292603 8.725C0.292603 7.58153 0.517837 6.44925 0.955443 5.39283C1.39305 4.33641 2.03446 3.37653 2.84304 2.568ZM14.096 3.628C12.7442 2.27645 10.9109 1.51727 8.99934 1.51746C7.08778 1.51765 5.25459 2.27719 3.90304 3.629C2.5515 4.98081 1.79232 6.81415 1.79251 8.72571C1.79269 10.6373 2.55224 12.4705 3.90404 13.822L5.39005 15.29C6.41652 16.2929 7.44586 17.2929 8.47804 18.29C8.61792 18.4253 8.80492 18.501 8.99955 18.501C9.19417 18.501 9.38117 18.4253 9.52104 18.29L12.915 14.99C13.385 14.529 13.778 14.14 14.095 13.822C15.4465 12.4704 16.2058 10.6374 16.2058 8.726C16.2058 6.81464 15.4465 4.98156 14.095 3.63L14.096 3.628ZM9.00004 5.999C9.39427 5.999 9.78464 6.07665 10.1489 6.22751C10.5131 6.37838 10.844 6.5995 11.1228 6.87826C11.4015 7.15702 11.6227 7.48796 11.7735 7.85218C11.9244 8.2164 12.002 8.60677 12.002 9.001C12.002 9.39523 11.9244 9.78559 11.7735 10.1498C11.6227 10.514 11.4015 10.845 11.1228 11.1237C10.844 11.4025 10.5131 11.6236 10.1489 11.7745C9.78464 11.9253 9.39427 12.003 9.00004 12.003C8.21348 11.9886 7.46399 11.6661 6.91282 11.1048C6.36164 10.5434 6.05283 9.78819 6.05283 9.0015C6.05283 8.21481 6.36164 7.45955 6.91282 6.89822C7.46399 6.33689 8.21348 6.01436 9.00004 6V5.999ZM9.00004 7.499C8.8028 7.499 8.60748 7.53785 8.42525 7.61333C8.24302 7.68881 8.07744 7.79945 7.93797 7.93892C7.7985 8.0784 7.68786 8.24398 7.61238 8.42621C7.5369 8.60844 7.49804 8.80375 7.49804 9.001C7.49804 9.19824 7.5369 9.39356 7.61238 9.57579C7.68786 9.75802 7.7985 9.9236 7.93797 10.0631C8.07744 10.2025 8.24302 10.3132 8.42525 10.3887C8.60748 10.4641 8.8028 10.503 9.00004 10.503C9.39827 10.503 9.78018 10.3448 10.0618 10.0632C10.3434 9.78163 10.5015 9.39972 10.5015 9.0015C10.5015 8.60328 10.3434 8.22136 10.0618 7.93978C9.78018 7.65819 9.39827 7.5 9.00004 7.5V7.499Z" fill="white" fill-opacity="0.87"/>
</svg>
