<svg width="31" height="31" viewBox="0 0 31 31" fill="none" xmlns="http://www.w3.org/2000/svg">
<g clip-path="url(#clip0)">
<path d="M15.5 0.000976562C24.0492 0.000976562 31 6.95175 31 15.501C31 24.0502 24.0492 31.0009 15.5 31.0009C6.95084 31.0009 0 24.0744 0 15.501C0 6.95175 6.95078 0.000976562 15.5 0.000976562Z" fill="#3F317C"/>
<path d="M15.5 2.66406C22.5961 2.66406 28.3359 8.40392 28.3359 15.4999C28.3359 22.596 22.596 28.3358 15.5 28.3358C8.40399 28.3358 2.66406 22.596 2.66406 15.5C2.66406 8.40405 8.40392 2.66406 15.5 2.66406Z" fill="#D5CBFF"/>
<g clip-path="url(#clip1)">
<path d="M22.6429 12.0138L15.7321 9.04917C15.5837 8.98556 15.416 8.98556 15.2678 9.04917L8.35696 12.0138C8.14023 12.1066 8.00004 12.3198 8.00024 12.5556C8.00063 12.7914 8.1416 13.0043 8.35834 13.0967L15.2692 16.0416C15.343 16.073 15.4215 16.0888 15.5001 16.0888C15.5786 16.0888 15.6573 16.073 15.7307 16.0416L22.6416 13.0967C22.8585 13.0044 22.9995 12.7914 22.9997 12.5556C22.9999 12.32 22.8597 12.1066 22.6429 12.0138ZM15.5001 14.8597L10.0874 12.5533L15.5001 10.2313L20.9127 12.5533L15.5001 14.8597Z" fill="#201941"/>
<path d="M22.9522 18.2126C22.824 17.9136 22.4771 17.7751 22.1788 17.9035L15.5001 20.7686L8.82129 17.9035C8.52188 17.7748 8.17615 17.9138 8.04794 18.2126C7.91953 18.5114 8.05796 18.8577 8.35697 18.9859L15.2678 21.9507C15.342 21.9825 15.4211 21.9984 15.5001 21.9984C15.579 21.9984 15.6581 21.9825 15.7323 21.9507L22.6431 18.9859C22.942 18.8577 23.0804 18.5114 22.9522 18.2126Z" fill="#201941"/>
<path d="M22.9526 15.2688C22.8247 14.9698 22.4788 14.8305 22.1798 14.958L15.4999 17.8046L8.82012 14.958C8.52071 14.8304 8.1748 14.9698 8.04736 15.2688C7.91974 15.5682 8.05893 15.9141 8.35814 16.0415L15.269 18.9864C15.3428 19.0179 15.4213 19.0336 15.4999 19.0336C15.5784 19.0336 15.6571 19.0179 15.7307 18.9864L22.6416 16.0415C22.9408 15.9141 23.08 15.5681 22.9526 15.2688Z" fill="#201941"/>
</g>
</g>
<defs>
<clipPath id="clip0">
<rect width="31" height="31" fill="white"/>
</clipPath>
<clipPath id="clip1">
<rect x="8" y="8" width="15" height="15" fill="white"/>
</clipPath>
</defs>
</svg>
