<svg xmlns="http://www.w3.org/2000/svg" width="31" height="27" viewBox="0 0 31 27"><g><g><path fill="#fff" d="M30.318 25.51c0 .688-.558 1.246-1.247 1.246H2.108A1.247 1.247 0 0 1 .86 25.51V1.671C.86.975 1.43.415 2.125.424l2.943.041v.956c0 1.011.378 1.85 1.144 2.518 1.078.94 2.842.966 3.946.067.827-.673 1.225-1.54 1.227-2.598v-.93c.077-.009.123-.018.169-.018 2.68 0 5.36 0 8.04-.005.175 0 .216.066.214.224-.005.35-.011.701.013 1.05.135 1.924 1.948 3.287 3.808 2.868a3.163 3.163 0 0 0 2.485-3.046c.007-.355 0-.71 0-1.062.05-.015.073-.027.095-.027.903 0 1.9 0 2.86-.002a1.246 1.246 0 0 1 1.249 1.246zM3.297 7.82c-.328 0-.33-.002-.33.317v16.207c0 .317.002.318.31.318h24.609c.329 0 .33 0 .33-.323l-.001-16.207c0-.313 0-.314-.31-.314l-12.316.001z"/></g><g><path fill="#fff" d="M9.415 22.83H6.147c-.007-.08-.021-.157-.021-.232-.002-.82.004-1.639-.005-2.457-.002-.187.054-.246.243-.244.954.01 1.908.006 2.863.002.145 0 .216.027.215.195-.006.858-.004 1.717-.006 2.576 0 .046-.011.092-.021.16z"/></g><g><path fill="#fff" d="M20.071 19.941v.414c0 .747-.004 1.494.004 2.24.002.182-.048.247-.24.245-.954-.009-1.908-.008-2.86 0-.182.001-.23-.058-.228-.232.007-.834.004-1.668.003-2.502 0-.108-.005-.206.152-.206 1.024.005 2.05.005 3.073.008.023 0 .044.014.096.033z"/></g><g><path fill="#fff" d="M11.403 22.813V19.92c.082-.007.157-.018.232-.018.94 0 1.877.004 2.816-.005.192 0 .264.048.261.252-.01.819-.005 1.639-.004 2.458 0 .123.011.234-.176.232-1.01-.006-2.02-.004-3.03-.005-.023 0-.045-.01-.099-.021z"/></g><g><path fill="#fff" d="M25.018 19.918v2.907c-.092.004-.17.011-.246.011-.93.001-1.86-.004-2.79.004-.188.002-.266-.038-.263-.246.01-.819.006-1.637.003-2.455 0-.141.005-.242.196-.241.994.008 1.987.004 2.98.005.03 0 .062.007.12.015z"/></g><g><path fill="#fff" d="M9.438 14.954v1.68c0 .348-.006.698.002 1.048.005.146-.05.192-.192.192-.978-.005-1.955-.005-2.933 0-.147.001-.192-.055-.191-.196.003-.85-.001-1.7.007-2.55 0-.059.083-.166.128-.166 1.048-.01 2.096-.008 3.18-.008z"/></g><g><path fill="#fff" d="M11.39 13.012v-.77c0-.642.006-1.287-.002-1.931-.002-.177.056-.234.232-.233.955.007 1.91.006 2.864 0 .16 0 .227.048.226.218-.006.843 0 1.686-.008 2.529-.001.063-.093.178-.143.179-1.041.01-2.081.008-3.168.008z"/></g><g><path fill="#fff" d="M18.392 13.013c-.47 0-.937-.01-1.405.004-.195.006-.241-.063-.241-.246.009-.818.008-1.636 0-2.454 0-.172.048-.24.23-.24.96.008 1.922.008 2.883.002.17-.001.216.067.215.227-.005.825-.006 1.65.002 2.478 0 .175-.05.237-.23.232-.484-.011-.97-.004-1.454-.003z"/></g><g><path fill="#fff" d="M24.997 13.012h-2.344c-.246 0-.493-.003-.739.002-.125.003-.192-.03-.19-.171.002-.858.002-1.717-.002-2.575 0-.152.07-.188.205-.188.97.003 1.94.003 2.91 0 .115 0 .196.015.196.164-.005.89-.004 1.78-.006 2.67 0 .023-.012.044-.03.098z"/></g><g><path fill="#fff" d="M16.751 14.969h3.32v.413c0 .739-.006 1.48.005 2.219.003.2-.043.278-.262.275-.947-.011-1.893-.005-2.839-.005-.112 0-.227.02-.226-.158.004-.905.002-1.811.002-2.744z"/></g><g><path fill="#fff" d="M11.406 17.848v-2.876h3.278c.008.06.022.12.022.18.002.836 0 1.67.003 2.505.001.143-.028.218-.196.217-.985-.005-1.97-.002-2.957-.003-.045 0-.09-.013-.15-.023z"/></g><g><path fill="#fff" d="M21.743 14.965h3.271v2.883c-.05.009-.096.022-.142.022-.977 0-1.954 0-2.93.003-.14 0-.223-.021-.22-.191.004-.866.001-1.732.002-2.598 0-.03.01-.06.02-.12z"/></g></g></svg>