<svg xmlns="http://www.w3.org/2000/svg" width="17" height="13" viewBox="0 0 17 13"><g><g><path fill="#fff" d="M16.35 11.146c0 .547-.44.99-.976.99H1.677a.985.985 0 0 1-.976-.99v-7.9c0-.513.393-.937.892-.98H5.21L5.463.975a.764.764 0 0 1 .742-.627h4.64a.76.76 0 0 1 .743.627l.252 1.29h3.618a.97.97 0 0 1 .77.504c.056.102.12.32.122.437zM8.526 3.61c-.481 0-.94.098-1.36.273a3.613 3.613 0 0 0-1.152.777v.005c-.326.33-.593.72-.771 1.159H5.24A3.67 3.67 0 0 0 4.968 7.2c0 .48.099.947.272 1.37h.003c.178.44.445.836.77 1.165.328.33.72.599 1.154.778.42.179.878.274 1.359.274.48 0 .938-.095 1.358-.274a3.495 3.495 0 0 0 1.153-.778h.005a3.625 3.625 0 0 0 1.04-2.535 3.67 3.67 0 0 0-.27-1.377 3.625 3.625 0 0 0-.77-1.16l-.005-.004a3.602 3.602 0 0 0-1.153-.777 3.521 3.521 0 0 0-1.358-.273zm1.694 1.875c.225.226.4.495.523.788.117.282.182.593.182.928a2.409 2.409 0 0 1-.705 1.71 2.427 2.427 0 0 1-.774.529 2.39 2.39 0 0 1-.92.179c-.327 0-.64-.062-.92-.18a2.431 2.431 0 0 1-.775-.527A2.419 2.419 0 0 1 6.126 7.2a2.425 2.425 0 0 1 1.48-2.24c.28-.117.593-.183.92-.183a2.375 2.375 0 0 1 1.694.707z"/></g></g></svg>