<svg xmlns="http://www.w3.org/2000/svg" width="47" height="47" viewBox="0 0 47 47"><g><g><path fill="#fff" d="M23.805.014c12.845 0 23.255 10.41 23.255 23.255 0 12.844-10.41 23.254-23.255 23.254-12.844 0-23.254-10.41-23.254-23.254C.551 10.424 10.961.014 23.806.014zm1.756 42.917c9.507-.842 17.096-8.448 17.912-17.962h-1.514a1.755 1.755 0 1 1 0-3.511h1.504C42.6 11.995 35.031 4.446 25.56 3.607V5.06a1.754 1.754 0 1 1-3.51 0V3.607c-9.469.839-17.038 8.388-17.902 17.85h1.505a1.755 1.755 0 1 1 0 3.512H4.14c.816 9.514 8.404 17.12 17.91 17.962v-1.563a1.754 1.754 0 1 1 3.51 0z"/></g><g><path fill="#fff" d="M34.26 11.94L23.866 22.833l-.06-.003c-.13 0-.256.013-.38.038l-8.7-6.574a1.317 1.317 0 0 0-1.583 2.104l8.698 6.57a1.974 1.974 0 0 0 3.94-.165c0-.05-.003-.102-.007-.154l10.393-10.894a1.316 1.316 0 0 0-1.905-1.816z"/></g></g></svg>
