<svg width="31" height="31" viewBox="0 0 31 31" fill="none" xmlns="http://www.w3.org/2000/svg">
<g clip-path="url(#clip0)">
<path d="M15.5 0.000976562C24.0492 0.000976562 31 6.95175 31 15.501C31 24.0502 24.0492 31.0009 15.5 31.0009C6.95084 31.0009 0 24.0744 0 15.501C0 6.95175 6.95078 0.000976562 15.5 0.000976562Z" fill="#3F317C"/>
<path d="M15.5 2.66406C22.5961 2.66406 28.3359 8.40392 28.3359 15.4999C28.3359 22.596 22.596 28.3358 15.5 28.3358C8.40399 28.3358 2.66406 22.596 2.66406 15.5C2.66406 8.40405 8.40392 2.66406 15.5 2.66406Z" fill="#D5CBFF"/>
<path d="M15.0156 14.0469C16.0812 14.0469 16.9532 14.9187 16.9532 15.9844C16.9532 17.05 16.0813 17.9219 15.0156 17.9219C13.95 17.9219 13.0781 17.0501 13.0781 15.9844C13.0781 14.9187 13.95 14.0469 15.0156 14.0469Z" fill="#BEBFC0"/>
<path d="M17.5828 12.7391L9.83282 20.4891C9.63906 20.6828 9.63906 20.9977 9.83282 21.1914C10.0266 21.3852 10.3414 21.3852 10.5352 21.1914L18.2852 13.4414C18.479 13.2477 18.479 12.9328 18.2852 12.7391C18.0914 12.5453 17.7765 12.5453 17.5828 12.7391Z" fill="#E2574C"/>
<path d="M15.9843 14.3132L13.3445 16.9773C13.514 17.2679 13.7562 17.5101 14.0469 17.6797L16.6867 15.0156C16.5171 14.7249 16.275 14.4828 15.9843 14.3132Z" fill="#C04A41"/>
<path d="M15.5 15.0156H23.25C23.5164 15.0156 23.7344 15.2336 23.7344 15.5C23.7344 15.7664 23.5164 15.9844 23.25 15.9844H15.5C15.2336 15.9844 15.0156 15.7664 15.0156 15.5C15.0156 15.2336 15.2336 15.0156 15.5 15.0156ZM12.2062 10.9227L16.2023 14.9188C16.5656 15.2821 16.5656 15.8391 16.2023 16.2024C15.839 16.5657 15.282 16.5657 14.9187 16.2024L10.9226 12.2063C10.5593 11.843 10.5593 11.286 10.9226 10.9227C11.2617 10.5593 11.843 10.5593 12.2062 10.9227Z" fill="#324D5B"/>
<path d="M15.5 13.5625C16.5656 13.5625 17.4375 14.4343 17.4375 15.5C17.4375 16.5657 16.5657 17.4375 15.5 17.4375C14.4343 17.4375 13.5625 16.5657 13.5625 15.5C13.5625 14.4343 14.4343 13.5625 15.5 13.5625Z" fill="#E4E7E7"/>
<path d="M15.5 14.5312C16.0329 14.5312 16.4688 14.9672 16.4688 15.5C16.4688 16.0328 16.0329 16.4688 15.5 16.4688C14.9672 16.4688 14.5312 16.0328 14.5312 15.5C14.5312 14.9672 14.9672 14.5312 15.5 14.5312Z" fill="#201941"/>
</g>
<defs>
<clipPath id="clip0">
<rect width="31" height="31" fill="white"/>
</clipPath>
</defs>
</svg>
