<svg width="31" height="31" viewBox="0 0 31 31" fill="none" xmlns="http://www.w3.org/2000/svg">
<path d="M15.5605 0C7.04172 0 0 6.92051 0 15.4395C0 23.9584 7.04172 31 15.5605 31C24.0794 31 31 23.9584 31 15.4395C31 6.92051 24.0794 0 15.5605 0Z" fill="#FFBE3F"/>
<path d="M15.5605 3.63281C9.05769 3.63281 3.63281 8.93666 3.63281 15.4395C3.63281 21.9422 9.05769 27.3672 15.5605 27.3672C22.0634 27.3672 27.3672 21.9422 27.3672 15.4395C27.3672 8.93666 22.0634 3.63281 15.5605 3.63281Z" fill="#EDA211"/>
<path d="M17.377 14.5312H16.4688V10.8984H17.377C17.8856 10.8984 18.2852 11.298 18.2852 11.8066C18.2852 13.0054 20.1016 13.0054 20.1016 11.8066C20.1016 10.299 18.8847 9.08203 17.377 9.08203H16.4688V8.17383C16.4688 7.57435 16.0146 7.26562 15.5605 7.26562C15.1064 7.26562 14.6523 7.57435 14.6523 8.17383V9.08203H13.623C12.1153 9.08203 10.8984 10.299 10.8984 11.8066V13.623C10.8984 15.1307 12.1153 16.3477 13.623 16.3477H14.6523V20.1016H13.623C13.1144 20.1016 12.7148 19.702 12.7148 19.1934C12.7148 17.9946 10.8984 17.9946 10.8984 19.1934C10.8984 20.701 12.1153 21.918 13.623 21.918H14.6523V22.8262C14.6523 23.4256 15.1064 23.7344 15.5605 23.7344C16.0146 23.7344 16.4688 23.4256 16.4688 22.8262V21.918H17.377C18.8847 21.918 20.1016 20.701 20.1016 19.1934V17.2559C20.1016 15.7482 18.8847 14.5312 17.377 14.5312ZM14.6523 14.5312H13.623C13.1144 14.5312 12.7148 14.1317 12.7148 13.623V11.8066C12.7148 11.298 13.1144 10.8984 13.623 10.8984H14.6523V14.5312ZM18.2852 19.1934C18.2852 19.702 17.8856 20.1016 17.377 20.1016H16.4688V16.3477H17.377C17.8856 16.3477 18.2852 16.7472 18.2852 17.2559V19.1934Z" fill="#FEDB41"/>
</svg>
