<svg xmlns="http://www.w3.org/2000/svg" width="23" height="23" viewBox="0 0 23 23"><g><g><path fill="#fff" d="M8.222 13.79c-.513-.551-1.807-1.58-.894-3.272-4.167.514-5.498-2.055-5.689-4.071C1.26 3.06 4.227.625 7.271.586h6.735c-.228.21-1.35.952-1.617.952l-1.77.019c4.51 4.243.133 7.8-.76 8.542-1.809 2.188 3.861 3.272 3.557 6.983 0 3.368-2.835 5.575-7.268 5.575-4.928-.02-7.286-3.082-5.46-6.146 1.941-2.74 5.688-2.968 7.534-2.721zm2.321 2.13c-.818-.798-1.807-1.558-3.9-1.311-2.455.285-4.243 1.465-4.148 3.31.514 3.92 6.165 4.015 8.067 2.663v.02c1.77-1.351 1.351-3.35-.019-4.681zM6.738 1.577c-1.77 0-2.683 1.275-2.759 3.083-.133 3.348 2.93 6.45 5.385 4.432 2.036-1.674.152-7.515-2.626-7.515zm11.625 9.646l-3.063.02V9.7h3.025V6.675h1.541V9.7l3.063.018.02 1.523h-3.083v3.043l-1.522.02z"/></g></g></svg>