<svg xmlns="http://www.w3.org/2000/svg" width="58" height="44" viewBox="0 0 58 44"><g><g><path fill="#fff" d="M49.678 4.36c-1.725.34-3.172 1.62-3.774 3.271-.538 1.471-.355 2.833.199 3.983l-5.913 7.328c-.72.89-.638 2.196.216 2.958l.034.03c.939.845 2.38.765 3.176-.219l5.912-7.327c1.339.32 2.818.271 4.66-1.458.975-.916 1.667-2.167 1.674-3.504a5.146 5.146 0 0 0-6.184-5.062z"/></g><g><path fill="#fff" d="M20.616 24.084c0-.393-.054-.773-.137-1.141l4.136-4.136c.368.084.747.137 1.141.137.406 0 .795-.06 1.173-.148l3.79 6.318a5.093 5.093 0 0 0-1.292 3.376 5.139 5.139 0 0 0 5.14 5.139c2.84 0 5.14-2.3 5.14-5.14 0-2.753-2.17-4.983-4.893-5.115l-4.427-7.377a5.088 5.088 0 0 0 .51-2.193 5.14 5.14 0 0 0-5.14-5.14c-2.84 0-5.14 2.3-5.14 5.14 0 .807.201 1.56.532 2.239l-3.434 3.434a5.09 5.09 0 0 0-2.239-.533 5.14 5.14 0 1 0 5.14 5.14zM5.196 38.77V2.79a2.203 2.203 0 1 0-4.405 0v38.182c0 1.217.986 2.203 2.202 2.203h52.868a2.203 2.203 0 1 0 0-4.405z"/></g></g></svg>