<svg xmlns="http://www.w3.org/2000/svg" width="35" height="30" viewBox="0 0 35 30"><g><g><path fill="#fff" d="M23.092 29.77c-1.3 0-2.359-.98-2.359-2.181v-8.327h-6.31v8.327c0 1.202-1.059 2.18-2.36 2.18H7.406c-1.3 0-2.358-.978-2.358-2.18v-12.11H2.572c-.75 0-1.406-.418-1.672-1.067-.265-.647-.073-1.363.488-1.822L15.976.679c.913-.745 2.29-.745 3.203 0l14.587 11.91c.563.46.754 1.176.49 1.824-.266.648-.922 1.067-1.672 1.067h-2.476v12.109c0 1.202-1.059 2.18-2.359 2.18zM12.55 17.533h10.055v10.056c0 .248.22.45.487.45h4.657c.27 0 .487-.202.487-.45v-13.84h4.124L17.94 1.976a.582.582 0 0 0-.725 0L2.796 13.749H6.92v13.84c0 .248.218.45.487.45h4.657c.27 0 .487-.202.487-.45zm19.977-3.646h.001l.62-.648z"/></g></g></svg>