<svg xmlns="http://www.w3.org/2000/svg" width="27" height="28" viewBox="0 0 27 28"><g><g><path fill="#fff" d="M9.92 24.847a1.26 1.26 0 0 0-1.134-.711H2.875A2.69 2.69 0 0 1 .189 21.45a2.69 2.69 0 0 1 2.684-2.686 1.02 1.02 0 0 0 1.019-1.018V9.985c0-5.38 4.377-9.757 9.757-9.757s9.757 4.377 9.757 9.757v7.76a1.02 1.02 0 0 0 1.018 1.019h.002a2.69 2.69 0 0 1 2.684 2.686 2.69 2.69 0 0 1-2.687 2.686h-5.914c-.482 0-.928.28-1.134.713a4.146 4.146 0 0 1-3.725 2.354 4.154 4.154 0 0 1-3.73-2.356zm1.08-.711c.03.05.057.104.082.157a2.86 2.86 0 0 0 2.568 1.623 2.854 2.854 0 0 0 2.563-1.621c.025-.054.053-.107.082-.16zm13.423-1.287a1.4 1.4 0 0 0 0-2.798h-.002a2.308 2.308 0 0 1-2.302-2.305V9.985c0-4.67-3.8-8.47-8.47-8.47-4.67 0-8.47 3.8-8.47 8.47v7.76a2.307 2.307 0 0 1-2.303 2.306h-.001a1.4 1.4 0 0 0-1.398 1.399 1.4 1.4 0 0 0 1.398 1.399z"/></g></g></svg>