<svg xmlns="http://www.w3.org/2000/svg" width="25" height="31" viewBox="0 0 25 31"><g><g><path fill="#333" d="M22.63 10.824c1.098 0 1.988.89 1.988 1.989v15.574a1.99 1.99 0 0 1-1.988 1.989H2.35a1.99 1.99 0 0 1-1.987-1.99V12.814a1.99 1.99 0 0 1 1.988-1.99h2.872v-8.61c0-1.274.91-1.288 3.11-1.32a371.55 371.55 0 0 1 8.314 0c2.198.032 3.109.046 3.109 1.32v5.12a1.246 1.246 0 1 1-2.493 0V3.398a337.45 337.45 0 0 0-9.545 0v7.427zm-9.806 16.143a2.007 2.007 0 1 0 .002-4.014 2.007 2.007 0 0 0-.002 4.014z"/></g></g></svg>