<svg xmlns="http://www.w3.org/2000/svg" width="58" height="58" viewBox="0 0 58 58"><g><g><path fill="#808285" d="M57.931 25.705H32.306V.08h25.625zm-23.063-2.562h20.5v-20.5h-20.5z"/></g><g><path fill="#808285" d="M48.162 15.937h-6.088V9.849h6.088zm-3.525-2.562h.964v-.964h-.964z"/></g><g><path fill="#808285" d="M26.342 25.705H.718V.08h25.624zM3.279 23.143h20.5v-20.5h-20.5z"/></g><g><path fill="#808285" d="M16.573 15.937h-6.088V9.849h6.088zm-3.526-2.562h.964v-.964h-.964z"/></g><g><path fill="#808285" d="M57.931 57.293H32.306V31.669h25.625zm-23.063-2.562h20.5v-20.5h-20.5z"/></g><g><path fill="#808285" d="M48.162 47.525h-6.088v-6.088h6.088zm-3.525-2.562h.964v-.964h-.964z"/></g><g><path fill="#808285" d="M7.625 38.577H1.537V32.49h6.088zm-3.526-2.562h.965v-.963h-.965z"/></g><g><path fill="#808285" d="M25.597 38.577h-6.088V32.49h6.088zm-3.526-2.562h.964v-.963h-.964z"/></g><g><path fill="#808285" d="M7.615 56.476H1.527v-6.088h6.088zM4.09 53.913h.963v-.964H4.09z"/></g><g><path fill="#808285" d="M25.588 56.476H19.5v-6.088h6.088zm-3.526-2.563h.964v-.964h-.964z"/></g><g><path fill="#808285" d="M16.606 47.526h-6.088v-6.088h6.088zm-3.526-2.562h.964V44h-.964z"/></g></g></svg>