<svg xmlns="http://www.w3.org/2000/svg" width="30" height="31" viewBox="0 0 30 31"><g><g><path fill="#fff" d="M13.24 22.582v-5.618h-.342c-.53 0-.993-.435-.993-.963 0-.279.124-.528.31-.714.34.094.683.155 1.025.218.62.124 1.24.154 1.862.154.65 0 1.272-.03 1.893-.154.342-.063.683-.124 1.025-.218a.988.988 0 0 1 .279.714.967.967 0 0 1-.962.963h-.342v5.618h.342c.528 0 .962.466.962.993 0 .094 0 .218-.031.311h-6.302a1.1 1.1 0 0 1-.061-.31c0-.528.464-.994.993-.994zm2.979-16.795l-.87-3.01-.868 3.01-.03.094H11.5l2.328 1.862.062.063-.031.062-.87 3.011 2.297-1.863.063-.03.062.03 2.297 1.863-.87-3.01-.03-.063.062-.063L19.2 5.881h-2.95zm13.473-4.563c.279 3.135-.931 6.302-3.135 8.538a8.47 8.47 0 0 1-1.832 1.46c-.683.432-1.49.775-1.894 1.52-.31.496-.031 1.117.528 1.303.062 0 .124.031.186.031.435 0 .839-.496.839-.93 0-.405.31-.622.65-.622.343 0 .684.217.684.621 0 .931-.62 1.77-1.458 2.111a1.937 1.937 0 0 1-.715.125 2.179 2.179 0 0 1-1.676-.808c-.403-.497-.558-1.056-.465-1.645a10.381 10.381 0 0 1-4.41 1.893 9.57 9.57 0 0 1-3.754 0 10.376 10.376 0 0 1-4.41-1.893c.094.59-.061 1.148-.465 1.645-.434.496-1.055.808-1.676.808-.248 0-.496-.032-.714-.125a2.288 2.288 0 0 1-1.46-2.11c0-.405.342-.622.685-.622.34 0 .65.217.65.621 0 .435.374.931.839.931.062 0 .124-.03.186-.03.559-.187.838-.808.528-1.305-.404-.744-1.243-1.056-1.894-1.52a9.51 9.51 0 0 1-1.862-1.459C1.474 7.526.263 4.36.542 1.224A.812.812 0 0 1 1.349.48h27.536c.403 0 .775.342.807.745zm-27.876.777c0 3.197 1.676 6.426 4.408 8.101a10.566 10.566 0 0 1-1.646-5.649c0-.9.124-1.8.34-2.639H1.847c-.03.062-.03.124-.03.187zm22.195 8.101c2.732-1.675 4.408-4.904 4.408-8.1 0-.064-.031-.126-.031-.188h-3.073c.218.838.342 1.74.342 2.64 0 2.08-.622 4.035-1.646 5.648zm-2.08 19.683c0 .186-.186.341-.372.341H8.645c-.187 0-.373-.155-.373-.34v-3.603c0-.186.186-.34.373-.34h.962c.218 0 .373-.157.373-.343v-.62c0-.187.155-.342.34-.342h9.562c.186 0 .342.155.342.341v.621c0 .186.186.342.372.342h.963c.186 0 .372.155.372.341z"/></g></g></svg>