<svg xmlns="http://www.w3.org/2000/svg" width="32" height="47" viewBox="0 0 32 47"><g><g><path fill="#fff" d="M15.373 21.89c0-2.891-7.743-3.601-10.087-9.651-.296-.773-.23-1.623-.106-2.506h21.499c.128.883.193 1.733-.107 2.506-2.34 6.05-10.083 6.76-10.083 9.65z"/></g><g><path fill="#fff" d="M15.369 20.604h1.12v17.153h-1.12z"/></g><g><path fill="#fff" d="M15.93 35.408L7.34 40.25H24.52z"/></g><g><path fill="#fff" d="M4.735 43.006l-.207-.231c-1.213-1.364-1.957-3.077-2.288-4.793-.372-1.906-.23-3.838.338-5.31 1.402-3.625 4.535-5.406 7.022-6.82 1.68-.953 3.016-1.715 3.016-2.583 0-.872-1.337-1.63-3.016-2.585-2.487-1.413-5.62-3.195-7.022-6.82-.569-1.471-.71-3.404-.338-5.313.331-1.713 1.075-3.425 2.288-4.79l.207-.231h22.392l.206.23c1.213 1.366 1.954 3.078 2.29 4.79.367 1.91.23 3.843-.343 5.314-1.402 3.625-4.535 5.407-7.02 6.82-1.677.955-3.014 1.713-3.014 2.585 0 .868 1.337 1.63 3.014 2.584 2.485 1.413 5.618 3.194 7.02 6.819.572 1.472.71 3.404.342 5.31-.335 1.716-1.076 3.429-2.289 4.793l-.206.23zM26.5 41.628c.922-1.127 1.502-2.512 1.77-3.904.32-1.661.211-3.315-.272-4.556-1.223-3.166-4.118-4.813-6.416-6.12-2.068-1.175-3.715-2.112-3.715-3.78 0-1.667 1.647-2.605 3.715-3.78 2.298-1.306 5.193-2.953 6.416-6.12.483-1.24.592-2.894.272-4.558-.268-1.39-.848-2.775-1.77-3.902H5.36C4.434 6.035 3.86 7.42 3.59 8.81c-.323 1.664-.21 3.318.27 4.558 1.227 3.167 4.121 4.814 6.42 6.12 2.067 1.175 3.714 2.113 3.714 3.78 0 1.668-1.647 2.605-3.715 3.78-2.298 1.307-5.192 2.954-6.419 6.12-.48 1.24-.593 2.895-.27 4.556.27 1.392.845 2.777 1.77 3.904z"/></g><g><path fill="#fff" d="M2.003 3.188h27.853c0 .944-.772 1.72-1.716 1.72H3.719a1.724 1.724 0 0 1-1.716-1.72z"/></g><g><path fill="#fff" d="M1.627-.016h28.608c.903 0 1.644.737 1.644 1.641a1.65 1.65 0 0 1-1.644 1.643H1.627A1.65 1.65 0 0 1-.017 1.625c0-.904.742-1.64 1.644-1.64z"/></g><g><path fill="#fff" d="M2.003 43.348h27.853c0-.948-.772-1.72-1.716-1.72H3.719c-.945 0-1.716.772-1.716 1.72z"/></g><g><path fill="#fff" d="M1.627 46.552h28.608c.903 0 1.644-.737 1.644-1.64 0-.906-.741-1.643-1.644-1.643H1.627c-.902 0-1.644.737-1.644 1.643 0 .903.742 1.64 1.644 1.64z"/></g></g></svg>