<svg xmlns="http://www.w3.org/2000/svg" width="28" height="27" viewBox="0 0 28 27"><g><g><path fill="#fff" d="M.537 24.15c.085-.044.06-.13.07-.198a11.7 11.7 0 0 1 1.208-3.702c1.372-2.6 3.42-4.465 6.132-5.599.016-.007.032-.015.05-.02.102-.032.1-.07.014-.132a6.866 6.866 0 0 1-.82-.684c-1.239-1.204-2.008-2.657-2.264-4.366-.267-1.798.046-3.499.994-5.054C7.172 2.341 9 1.1 11.382.747c2.18-.322 4.16.22 5.88 1.6 1.582 1.267 2.526 2.924 2.791 4.938.287 2.176-.265 4.14-1.649 5.842-1.266 1.558-2.915 2.47-4.907 2.752a8.94 8.94 0 0 1-1.132.074c-2.449.038-4.598.867-6.423 2.492-1.809 1.61-2.864 3.635-3.204 6.032-.027.192-.018.204.187.204h9.288c.315 0 .27-.01.272.277.002.583-.002 1.165.002 1.748 0 .113-.027.162-.152.162-3.228-.004-6.455.001-9.68-.008-.949-.002-1.787-.67-2.042-1.582C.6 25.23.61 25.16.537 25.141zM12.46 13.762c3.02.005 5.48-2.43 5.483-5.428a5.453 5.453 0 0 0-5.46-5.489 5.452 5.452 0 0 0-5.456 5.452c-.002 3.01 2.435 5.46 5.433 5.465z"/></g><g><path fill="#fff" d="M27.258 17c-.055.015-.049.066-.058.106-.142.68-.475 1.251-.967 1.74a4853.25 4853.25 0 0 0-6.806 6.807c-.2.201-.431.327-.71.382-1.262.25-2.522.51-3.785.753-.781.15-1.429-.51-1.276-1.292.251-1.284.512-2.566.77-3.848.047-.233.162-.428.33-.595 1.899-1.895 3.798-3.79 5.695-5.686.416-.415.822-.839 1.242-1.248 1.817-1.77 4.846-.917 5.475 1.54.021.082 0 .185.09.244zm-11.015 7.303c.575-.115 1.151-.232 1.726-.346a.303.303 0 0 0 .155-.09c1.664-1.662 3.328-3.324 4.994-4.984.075-.075.079-.124.002-.2-.452-.446-.901-.895-1.347-1.347-.082-.084-.131-.076-.21.003-1.659 1.661-3.321 3.32-4.983 4.977a.346.346 0 0 0-.101.191c-.047.248-.099.495-.148.742-.063.315-.127.63-.188.946-.01.05-.043.122.055.114l.045-.006zm8.218-8.83c-.395-.19-.776-.143-1.133.11-.072.052-.113.097-.027.182.464.458.924.92 1.382 1.382.071.071.113.051.165-.016.153-.2.228-.427.234-.708-.021-.415-.218-.755-.621-.95z"/></g></g></svg>