<svg xmlns="http://www.w3.org/2000/svg" viewBox="0 0 24.98 28.53"><defs><style>.cls-1{fill:#fff;}</style></defs><title>GoogleVerif_Ресурс 1</title><g id="Слой_2" data-name="Слой 2"><g id="Слой_30" data-name="Слой 30"><path class="cls-1" d="M18.76,13.93A13.12,13.12,0,0,0,15,12.34a6.45,6.45,0,0,0,3.9-5.91A6.44,6.44,0,0,0,6,6.43,6.46,6.46,0,0,0,10,12.35a13,13,0,0,0-3.73,1.58C1.92,16.55,0,20.71,0,27.41a1.12,1.12,0,0,0,2.24,0c0-7.44,2.6-10,5.15-11.57a9,9,0,0,1,10.2,0c2.55,1.55,5.15,4.13,5.15,11.57a1.12,1.12,0,0,0,2.24,0c0-6.7-1.92-10.86-6.22-13.48m-10-5.62a4.1,4.1,0,0,1-.45-1.88,4.2,4.2,0,0,1,8.39,0,4.1,4.1,0,0,1-.45,1.88,4.19,4.19,0,0,1-7.49,0"/></g></g></svg>