<svg xmlns="http://www.w3.org/2000/svg" width="62" height="29" viewBox="0 0 62 29"><g><g><path fill="#fff" d="M18.928 14.128a1.12 1.12 0 1 1-1.164 1.913c-3.482-2.116-6.724-2.116-10.206 0-2.545 1.548-5.147 4.133-5.147 11.572a1.12 1.12 0 1 1-2.238 0c0-6.708 1.918-10.868 6.222-13.485 1.238-.754 2.484-1.277 3.73-1.582a6.375 6.375 0 0 1-3.226-3.03A6.434 6.434 0 0 1 12.644.199c3.548 0 6.434 2.883 6.434 6.427a6.404 6.404 0 0 1-.682 2.889 6.406 6.406 0 0 1-3.218 3.025c1.253.304 2.504.83 3.75 1.588zM8.903 8.514a4.159 4.159 0 0 0 3.741 2.306 4.18 4.18 0 0 0 3.75-2.31 4.194 4.194 0 0 0-3.75-6.071 4.192 4.192 0 0 0-3.74 6.075z"/></g><g><path fill="#fff" d="M54.998 14.128c4.303 2.617 6.222 6.777 6.222 13.485a1.12 1.12 0 1 1-2.24 0c0-7.44-2.602-10.024-5.146-11.572-3.481-2.117-6.725-2.117-10.207 0a1.116 1.116 0 0 1-1.538-.375 1.122 1.122 0 0 1 .375-1.538c1.245-.758 2.496-1.284 3.749-1.588a6.403 6.403 0 0 1-3.215-3.022 6.408 6.408 0 0 1-.684-2.892c0-3.544 2.886-6.427 6.434-6.427a6.434 6.434 0 0 1 5.745 9.317 6.383 6.383 0 0 1-3.223 3.03c1.245.305 2.489.828 3.728 1.582zM45 8.514a4.177 4.177 0 0 0 3.748 2.306c1.596 0 3.03-.884 3.741-2.306a4.192 4.192 0 0 0-3.741-6.075A4.195 4.195 0 0 0 45 8.514z"/></g><g><path fill="#fff" d="M36.98 14.128c4.304 2.617 6.223 6.777 6.223 13.485a1.12 1.12 0 0 1-2.24 0c0-7.44-2.602-10.024-5.147-11.572-3.48-2.117-6.724-2.117-10.206 0-2.545 1.548-5.146 4.133-5.146 11.572a1.12 1.12 0 0 1-2.239 0c0-6.708 1.918-10.868 6.222-13.485 1.238-.754 2.484-1.277 3.73-1.582a6.375 6.375 0 0 1-3.226-3.03A6.434 6.434 0 0 1 30.696.199c3.548 0 6.434 2.883 6.434 6.427a6.404 6.404 0 0 1-.682 2.889 6.406 6.406 0 0 1-3.218 3.025c1.253.304 2.504.83 3.75 1.588zM26.955 8.514a4.158 4.158 0 0 0 3.741 2.306 4.18 4.18 0 0 0 3.75-2.31 4.194 4.194 0 0 0-3.75-6.071 4.192 4.192 0 0 0-3.74 6.075z"/></g></g></svg>