<svg xmlns="http://www.w3.org/2000/svg" width="31" height="30" viewBox="0 0 31 30"><g><g><path fill="#fff" d="M.835 14.864c0-8.22 6.687-14.908 14.907-14.908 8.22 0 14.906 6.688 14.906 14.908 0 8.218-6.687 14.906-14.906 14.906-8.22 0-14.907-6.688-14.907-14.906zm1.888 0c0 7.177 5.841 13.017 13.02 13.017 7.177 0 13.017-5.84 13.017-13.017 0-7.178-5.84-13.02-13.018-13.02-7.178 0-13.019 5.842-13.019 13.02z"/></g><g><path fill="#fff" d="M12.092 23.26a1.915 1.915 0 0 1-1.065-1.724V8.78c0-.735.407-1.395 1.065-1.723a1.915 1.915 0 0 1 2.017.181l8.509 6.378c.49.367.772.929.772 1.542 0 .612-.282 1.175-.772 1.542l-8.51 6.378a1.92 1.92 0 0 1-2.016.182zm.884-14.511l-.062.031v12.756l.062.031 8.51-6.379v-.061z"/></g></g></svg>