<svg xmlns="http://www.w3.org/2000/svg" viewBox="0 0 65.18 65.31"><defs><style>.cls-1{fill:#fff;}.cls-2{fill:#ea5338;}</style></defs><title>Bell_orange_Ресурс 13</title><g id="Слой_2" data-name="Слой 2"><g id="ALL_ICON" data-name="ALL ICON"><g id="Notification"><path class="cls-1" d="M32.59,65.31a10.06,10.06,0,0,1-9-5.7,3,3,0,0,0-2.74-1.72H6.5a6.51,6.51,0,0,1,0-13h0A2.47,2.47,0,0,0,9,42.42V23.62a23.62,23.62,0,0,1,47.24,0v18.8a2.47,2.47,0,0,0,2.47,2.46h0a6.51,6.51,0,1,1,0,13H44.36a3,3,0,0,0-2.75,1.72A10,10,0,0,1,32.59,65.31Zm-6.41-7.42c.07.12.13.25.19.38a6.88,6.88,0,0,0,12.43,0c.06-.13.13-.26.2-.38Zm18.18-3.12H58.67a3.39,3.39,0,1,0,0-6.77h0a5.59,5.59,0,0,1-5.57-5.58V23.62a20.51,20.51,0,0,0-41,0v18.8A5.59,5.59,0,0,1,6.51,48h0a3.39,3.39,0,0,0,0,6.77Z"/><path class="cls-2" d="M53.6,29.87A11.61,11.61,0,0,1,41.86,18.13a11.66,11.66,0,1,1,23.32,0A11.57,11.57,0,0,1,53.6,29.87Z"/></g></g></g></svg>