<svg xmlns="http://www.w3.org/2000/svg" viewBox="0 0 64.53 65.47"><defs><style>.cls-1{fill:#fff;}</style></defs><title>Calendar_Ресурс 6</title><g id="Слой_2" data-name="Слой 2"><g id="ALL_ICON" data-name="ALL ICON"><g id="Calendar"><path class="cls-1" d="M64.53,10.59V62.74a2.73,2.73,0,0,1-2.73,2.73H2.73A2.73,2.73,0,0,1,0,62.74V10.51A2.74,2.74,0,0,1,2.77,7.78l6.45.09c0,.74,0,1.42,0,2.09a6.92,6.92,0,0,0,11.15,5.67,7,7,0,0,0,2.69-5.69v-2a3.66,3.66,0,0,1,.37,0H41c.38,0,.47.14.47.49,0,.76,0,1.53,0,2.3a6.9,6.9,0,0,0,13.78-.39c0-.78,0-1.56,0-2.33a1.2,1.2,0,0,1,.2-.06H61.8A2.72,2.72,0,0,1,64.53,10.59ZM32.27,24H5.34c-.72,0-.72,0-.72.7v35.5c0,.7,0,.7.67.7H59.21c.72,0,.72,0,.72-.71V24.67c0-.69,0-.69-.68-.69Z"/><path class="cls-1" d="M18.74,56.86H11.58a4.4,4.4,0,0,1-.05-.51c0-1.79,0-3.58,0-5.38,0-.41.12-.53.54-.53,2.09,0,4.18,0,6.27,0,.32,0,.47.06.47.43,0,1.88,0,3.76,0,5.64A3.24,3.24,0,0,1,18.74,56.86Z"/><path class="cls-1" d="M42.09,50.54v.9c0,1.64,0,3.28,0,4.91,0,.4-.1.54-.52.54q-3.14,0-6.27,0c-.4,0-.5-.13-.5-.51,0-1.83,0-3.66,0-5.48,0-.24,0-.45.33-.45h6.74S42,50.5,42.09,50.54Z"/><path class="cls-1" d="M23.1,56.83V50.49a4.56,4.56,0,0,1,.51,0c2.05,0,4.11,0,6.16,0,.42,0,.58.1.57.55,0,1.79,0,3.59,0,5.38,0,.27,0,.52-.39.51H23.31Z"/><path class="cls-1" d="M52.92,50.48v6.37l-.54,0c-2,0-4.07,0-6.11,0-.41,0-.58-.09-.58-.54,0-1.8,0-3.59,0-5.38,0-.31,0-.53.43-.53,2.18,0,4.35,0,6.53,0Z"/><path class="cls-1" d="M18.79,39.61v3.68c0,.76,0,1.53,0,2.3,0,.32-.12.42-.43.42H12c-.32,0-.42-.12-.42-.43,0-1.86,0-3.73,0-5.59,0-.13.19-.36.29-.36C14.12,39.61,16.42,39.61,18.79,39.61Z"/><path class="cls-1" d="M23.07,35.35V33.67c0-1.41,0-2.82,0-4.23,0-.39.12-.51.51-.51q3.13,0,6.27,0c.36,0,.5.1.5.47,0,1.85,0,3.7,0,5.55,0,.13-.2.39-.31.39C27.73,35.36,25.45,35.35,23.07,35.35Z"/><path class="cls-1" d="M38.41,35.36c-1,0-2.06,0-3.08,0-.43,0-.53-.14-.53-.54,0-1.8,0-3.59,0-5.38,0-.38.11-.52.5-.52,2.11,0,4.21,0,6.32,0,.37,0,.47.15.47.5,0,1.81,0,3.62,0,5.42,0,.39-.1.52-.5.51C40.53,35.34,39.47,35.36,38.41,35.36Z"/><path class="cls-1" d="M52.88,35.36H46.12c-.27,0-.42-.06-.42-.38q0-2.82,0-5.64c0-.33.16-.41.45-.41q3.2,0,6.37,0c.26,0,.44,0,.44.36,0,1.95,0,3.9,0,5.85A.81.81,0,0,1,52.88,35.36Z"/><path class="cls-1" d="M34.81,39.64h7.28v.91c0,1.62,0,3.24,0,4.86,0,.44-.1.61-.58.6-2.07,0-4.15,0-6.22,0-.24,0-.49,0-.49-.35C34.82,43.67,34.81,41.69,34.81,39.64Z"/><path class="cls-1" d="M23.1,46v-6.3h7.18a2.6,2.6,0,0,1,0,.39c0,1.83,0,3.66,0,5.49,0,.31-.06.48-.43.48H23.43A2.42,2.42,0,0,1,23.1,46Z"/><path class="cls-1" d="M45.75,39.63h7.16V46a1.81,1.81,0,0,1-.31,0H46.18c-.3,0-.48,0-.48-.42,0-1.89,0-3.79,0-5.68A2.2,2.2,0,0,1,45.75,39.63Z"/><rect class="cls-1" x="11.54" width="9.08" height="13.81" rx="1.58"/><rect class="cls-1" x="43.78" width="9.08" height="13.81" rx="1.58"/></g></g></g></svg>