<svg xmlns="http://www.w3.org/2000/svg" viewBox="0 0 106.54 105.3"><defs><style>.cls-1{font-size:23.01px;font-family:Nexa-Bold, Nexa Bold;font-weight:700;letter-spacing:-0.05em;}.cls-1,.cls-4{fill:#fff;}.cls-2{letter-spacing:-0.04em;}.cls-3{letter-spacing:-0.06em;}</style></defs><title>Calendar_L_Ресурс 5</title><g id="Слой_2" data-name="Слой 2"><g id="TEXTE"><text class="cls-1" transform="translate(5.14 98.54)">C<tspan class="cls-2" x="14.98" y="0">alenda</tspan><tspan class="cls-3" x="86.69" y="0">r</tspan></text></g><g id="ALL_ICON" data-name="ALL ICON"><g id="Calendar"><path class="cls-4" d="M85.53,10.59V62.74a2.73,2.73,0,0,1-2.73,2.73H23.73A2.73,2.73,0,0,1,21,62.74V10.51a2.73,2.73,0,0,1,2.77-2.73l6.44.09V10a6.92,6.92,0,1,0,13.84,0v-2a3.66,3.66,0,0,1,.37,0H62c.38,0,.47.14.46.49,0,.76,0,1.53,0,2.3a6.9,6.9,0,0,0,13.79-.39c0-.78,0-1.56,0-2.33a1.22,1.22,0,0,1,.21-.06H82.8A2.72,2.72,0,0,1,85.53,10.59ZM53.26,24H26.33c-.72,0-.72,0-.72.7v35.5c0,.7,0,.7.68.7H80.2c.72,0,.73,0,.73-.71q0-17.74,0-35.5c0-.69,0-.69-.68-.69Z"/><path class="cls-4" d="M39.74,56.86H32.58a4.4,4.4,0,0,1,0-.51c0-1.79,0-3.58,0-5.38,0-.41.12-.53.53-.53,2.09,0,4.18,0,6.28,0,.31,0,.47.06.47.43,0,1.88,0,3.76,0,5.64A3.24,3.24,0,0,1,39.74,56.86Z"/><path class="cls-4" d="M63.08,50.54v.9c0,1.64,0,3.28,0,4.91,0,.4-.1.54-.53.54q-3.12,0-6.26,0c-.4,0-.5-.13-.5-.51,0-1.83,0-3.66,0-5.48,0-.24,0-.45.33-.45h6.73A1,1,0,0,1,63.08,50.54Z"/><path class="cls-4" d="M44.09,56.83V50.49a4.75,4.75,0,0,1,.51,0c2.06,0,4.12,0,6.17,0,.42,0,.58.1.57.55,0,1.79,0,3.59,0,5.38,0,.27,0,.52-.38.51H44.31Z"/><path class="cls-4" d="M73.92,50.48v6.37l-.54,0c-2,0-4.07,0-6.11,0-.41,0-.58-.09-.58-.54,0-1.8,0-3.59,0-5.38,0-.31,0-.53.43-.53,2.17,0,4.35,0,6.53,0Z"/><path class="cls-4" d="M39.79,39.61v3.68c0,.76,0,1.53,0,2.3,0,.32-.11.42-.42.42H33c-.33,0-.43-.12-.42-.43,0-1.86,0-3.73,0-5.59,0-.13.18-.36.28-.36C35.12,39.61,37.41,39.61,39.79,39.61Z"/><path class="cls-4" d="M44.07,35.35V33.67c0-1.41,0-2.82,0-4.23,0-.39.12-.51.51-.51q3.13,0,6.27,0c.35,0,.5.1.5.47,0,1.85,0,3.7,0,5.55,0,.13-.2.39-.31.39C48.73,35.36,46.45,35.35,44.07,35.35Z"/><path class="cls-4" d="M59.4,35.36c-1,0-2,0-3.08,0-.42,0-.53-.14-.52-.54,0-1.8,0-3.59,0-5.38,0-.38.1-.52.5-.52,2.11,0,4.21,0,6.32,0,.37,0,.47.15.47.5,0,1.81,0,3.62,0,5.42,0,.39-.11.52-.5.51C61.53,35.34,60.47,35.36,59.4,35.36Z"/><path class="cls-4" d="M73.88,35.36H67.12c-.27,0-.42-.06-.42-.38q0-2.82,0-5.64c0-.33.15-.41.45-.41,2.12,0,4.25,0,6.37,0,.26,0,.43,0,.43.36,0,1.95,0,3.9,0,5.85A1.55,1.55,0,0,1,73.88,35.36Z"/><path class="cls-4" d="M55.81,39.64h7.27v.91c0,1.62,0,3.24,0,4.86,0,.44-.09.61-.57.6-2.07,0-4.15,0-6.22,0-.24,0-.5,0-.5-.35C55.81,43.67,55.81,41.69,55.81,39.64Z"/><path class="cls-4" d="M44.1,46v-6.3h7.18a2.6,2.6,0,0,1,0,.39c0,1.83,0,3.66,0,5.49,0,.31-.06.48-.43.48H44.43A2.42,2.42,0,0,1,44.1,46Z"/><path class="cls-4" d="M66.75,39.63h7.16V46a1.81,1.81,0,0,1-.31,0H67.18c-.31,0-.49,0-.48-.42,0-1.89,0-3.79,0-5.68A2.2,2.2,0,0,1,66.75,39.63Z"/><rect class="cls-4" x="32.54" width="9.08" height="13.81" rx="1.58"/><rect class="cls-4" x="64.78" width="9.08" height="13.81" rx="1.58"/></g></g></g></svg>