<svg xmlns="http://www.w3.org/2000/svg" viewBox="0 0 62.08 62.08"><defs><style>.cls-1{fill:#fff;}</style></defs><title>clock_Ресурс 19</title><g id="Слой_2" data-name="Слой 2"><g id="ALL_ICON" data-name="ALL ICON"><g id="Coming_soon" data-name="Coming soon"><path class="cls-1" d="M31,0a31,31,0,1,0,31,31A31,31,0,0,0,31,0Zm2.34,57.28V55.2a2.34,2.34,0,1,0-4.68,0v2.08a26.38,26.38,0,0,1-23.91-24h2a2.35,2.35,0,0,0,0-4.69h-2A26.4,26.4,0,0,1,28.7,4.79V6.73a2.34,2.34,0,1,0,4.68,0V4.79a26.4,26.4,0,0,1,23.9,23.83h-2a2.35,2.35,0,0,0,0,4.69h2A26.38,26.38,0,0,1,33.38,57.28Z"/><path class="cls-1" d="M45,15.92,31.12,30.46H31a2.84,2.84,0,0,0-.51.05L18.92,21.73a1.76,1.76,0,0,0-2.12,2.81l11.61,8.77a2.63,2.63,0,0,0,5.26-.22,1.48,1.48,0,0,0,0-.21L47.54,18.34A1.76,1.76,0,0,0,45,15.92Z"/></g></g></g></svg>