<svg xmlns="http://www.w3.org/2000/svg" xmlns:xlink="http://www.w3.org/1999/xlink" viewBox="0 0 86.78 81.75"><defs><style>.cls-1{fill:#fff;}.cls-2{fill:url(#linear-gradient);}</style><linearGradient id="linear-gradient" x1="41.49" y1="-1.29" x2="68.03" y2="71.12" gradientUnits="userSpaceOnUse"><stop offset="0" stop-color="#f7a01d"/><stop offset="0.61" stop-color="#ef5236"/></linearGradient></defs><title>ERALogo_Ресурс 30</title><g id="Слой_2" data-name="Слой 2"><g id="Screen_2_Icon" data-name="Screen 2 / Icon"><path class="cls-1" d="M51.65,77.53,44.47,61.29A4.44,4.44,0,0,1,44.13,59l1.23-9.48-4.1-7.17a4.3,4.3,0,0,1-.53-1.52l-.62-4.32L33.82,35l-8.43,1.41a4.49,4.49,0,0,1-.73.06,4.45,4.45,0,0,1-3.08-1.26L15.22,29a4.4,4.4,0,0,1-1.32-3.13V16.65A4.41,4.41,0,0,1,15,13.73l6.8-7.62,1.95-2.37.11-.13L24,3.5l1.34-1.34A41.42,41.42,0,0,0,54,79.8,4.36,4.36,0,0,1,51.65,77.53Z"/><path class="cls-2" d="M47.42,59.38a1.12,1.12,0,0,0,.08.57l7.19,16.24a1.06,1.06,0,0,0,1.15.63l5.45-.9a1.08,1.08,0,0,0,.67-.4l6.28-8.11,8.67-13a1.16,1.16,0,0,0,.18-.57l.17-9.1a3.27,3.27,0,0,1,.52-1.72l8.82-13.6a1,1,0,0,0,.07-1,1.06,1.06,0,0,0-.85-.61l-6.64-.68-7.48-12L68.33,6.22a1.06,1.06,0,0,0-.87-.68L57.25,4.27a1.09,1.09,0,0,0-.8.23L54.7,5.92a3.28,3.28,0,0,1-3.56.37l-4.7-2.4A3.27,3.27,0,0,1,44.66,1a1.07,1.07,0,0,0-.38-.79A1.05,1.05,0,0,0,43.44,0L35.59,1.09l-4.67.49a1.11,1.11,0,0,0-.64.31l-4,4-2,2.43-6.84,7.67a1,1,0,0,0-.27.71v9.21a1,1,0,0,0,.32.76l6.37,6.27a1,1,0,0,0,.92.29l8.45-1.41a3.16,3.16,0,0,1,1.26,0l6.3,1.42a3.26,3.26,0,0,1,2.52,2.71L44,40.3a1,1,0,0,0,.13.37l4.1,7.16a3.27,3.27,0,0,1,.4,2.05Z"/></g></g></svg>