<svg xmlns="http://www.w3.org/2000/svg" viewBox="0 0 78.89 51.18"><defs><style>.cls-1{fill:#366aa5;}.cls-2{fill:#fff;}</style></defs><title>Facebook_Ресурс 12</title><g id="Слой_2" data-name="Слой 2"><g id="ALL_ICON" data-name="ALL ICON"><g id="Facebook"><rect class="cls-1" width="78.89" height="51.18" rx="19.5"/><path class="cls-2" d="M36.92,22.17V20.08a5.81,5.81,0,0,1,.4-2.17,5.48,5.48,0,0,1,1.08-1.75A5.17,5.17,0,0,1,40,15a4.57,4.57,0,0,1,2-.43h3.39V18.7H42a.73.73,0,0,0-.56.38,1.56,1.56,0,0,0-.27.92v2.17h4.22v4.22H41.14V36.63H36.92V26.39H33.53V22.17Z"/></g></g></g></svg>