<svg xmlns="http://www.w3.org/2000/svg" viewBox="0 0 67.6 67.6"><defs><style>.cls-1{fill:#414042;}.cls-2{fill:#fff;}.cls-3{fill:#ea5338;}</style></defs><title>Filter_plus_Ресурс 15</title><g id="Слой_2" data-name="Слой 2"><g id="ALL_ICON" data-name="ALL ICON"><g id="Filter"><circle class="cls-1" cx="33.8" cy="33.8" r="32.59"/><path class="cls-2" d="M33.8,67.6A33.8,33.8,0,1,1,67.6,33.8,33.83,33.83,0,0,1,33.8,67.6Zm0-65.18A31.38,31.38,0,1,0,65.18,33.8,31.42,31.42,0,0,0,33.8,2.42Z"/><path class="cls-2" d="M28.73,45.73l2.57-.19c.06.83.13,1.62.18,2.41.11,1.47.21,2.95.3,4.42.06.78.3,1.06,1.07,1.09s1.29,0,1.94,0,1-.31,1-1.06c.4-5.43.81-10.85,1.17-16.28a1.83,1.83,0,0,1,.88-1.55c4.53-3.23,9-6.51,13.55-9.74a1.84,1.84,0,0,0,.85-1.67c0-.84,0-1.69,0-2.53,0-1.11-.43-1.53-1.54-1.53H16.65a1.21,1.21,0,0,0-1.29,1.36c0,1,0,1.94,0,2.9A1.58,1.58,0,0,0,16,24.7l4.84,3.76.43.35-1.58,2-1.22-.93-4-3.08a4.44,4.44,0,0,1-1.77-3.5c0-.87,0-1.75,0-2.63A4.21,4.21,0,0,1,17,16.5H44.2c2.17,0,4.34,0,6.5,0a4.22,4.22,0,0,1,4.16,4.14,29.84,29.84,0,0,1-.12,3.54A3.91,3.91,0,0,1,53,26.89L40,36.24a1.05,1.05,0,0,0-.49.87c-.29,4.15-.6,8.3-.9,12.46-.07,1-.18,1.9-.19,2.85a4,4,0,0,1-3.74,3.64q-.9,0-1.8,0a4,4,0,0,1-3.73-3.65c-.06-1.95-.26-3.9-.4-5.84C28.75,46.31,28.74,46.05,28.73,45.73Z"/><path class="cls-3" d="M24.86,39.2h5.72a1.31,1.31,0,0,1,1.34,1.3,1.28,1.28,0,0,1-1.33,1.3c-1.69,0-3.38,0-5.07,0h-.66v.57c0,1.72,0,3.45,0,5.17a1.28,1.28,0,0,1-.94,1.27,1.22,1.22,0,0,1-1.41-.5,1.73,1.73,0,0,1-.23-.86c0-1.66,0-3.32,0-5,0-.2,0-.4,0-.67H16.68a1.33,1.33,0,0,1-1.49-1.28A1.34,1.34,0,0,1,16.7,39.2h5.57v-.6c0-1.66,0-3.32,0-5a1.3,1.3,0,0,1,1.29-1.47,1.31,1.31,0,0,1,1.31,1.46V39.2Z"/></g></g></g></svg>