<svg xmlns="http://www.w3.org/2000/svg" viewBox="0 0 78.89 51.18"><defs><style>.cls-1{fill:#eb6052;}.cls-2{fill:#fff;}</style></defs><title>Google_Ресурс 11</title><g id="Слой_2" data-name="Слой 2"><g id="ALL_ICON" data-name="ALL ICON"><g id="Google"><rect class="cls-1" width="78.89" height="51.18" rx="19.5"/><path class="cls-2" d="M28.85,30.48c1.94-2.74,5.69-3,7.53-2.72-.51-.55-1.81-1.58-.89-3.27-4.17.51-5.5-2.06-5.69-4.07-.38-3.39,2.59-5.83,5.63-5.86h6.73a5.82,5.82,0,0,1-1.61.95l-1.77,0c4.51,4.24.13,7.8-.76,8.54-1.81,2.19,3.86,3.27,3.55,7,0,3.37-2.83,5.58-7.26,5.58-4.93,0-7.29-3.09-5.46-6.15Zm9.87,4.09c1.77-1.35,1.35-3.35,0-4.68a4.2,4.2,0,0,0-3.9-1.31c-2.45.28-4.24,1.46-4.15,3.31.52,3.92,6.17,4,8.07,2.66v0Zm-1.2-11.51c2-1.67.15-7.51-2.62-7.51-1.77,0-2.69,1.27-2.76,3.08C32,22,35.07,25.08,37.52,23.06Zm9,2.13-3.06,0V23.67h3v-3H48v3l3.06,0,0,1.52H48v3.05l-1.53,0,0-3.09Z"/></g></g></g></svg>