<svg xmlns="http://www.w3.org/2000/svg" xmlns:xlink="http://www.w3.org/1999/xlink" viewBox="0 0 84.88 84.88"><defs><style>.cls-1{fill:#616161;}.cls-2{fill:#9e9e9e;}.cls-3{fill:#424242;}.cls-10,.cls-4{fill:#212121;}.cls-4{fill-opacity:0.1;}.cls-5,.cls-9{fill:#fff;}.cls-5{fill-opacity:0.05;}.cls-6,.cls-7{fill:#bdbdbd;}.cls-6{opacity:0.5;isolation:isolate;}.cls-8{fill:#757575;}.cls-10,.cls-9{fill-opacity:0.2;}.cls-11{fill:url(#radial-gradient);}</style><radialGradient id="radial-gradient" cx="3371.85" cy="-3945.3" r="0.03" gradientTransform="translate(-8368689 9791987.25) scale(2481.93)" gradientUnits="userSpaceOnUse"><stop offset="0" stop-color="#fff" stop-opacity="0.1"/><stop offset="1" stop-color="#fff" stop-opacity="0"/></radialGradient></defs><title>GoogleVerif_Ресурс 2</title><g id="Слой_2" data-name="Слой 2"><g id="_1_-_BIS" data-name="1 - BIS"><circle class="cls-1" cx="42.44" cy="42.44" r="42.44"/><path class="cls-2" d="M42.44,69.45a27,27,0,1,1,19.1-46.11L72.45,12.43a42.44,42.44,0,1,0,0,60L61.54,61.54A26.92,26.92,0,0,1,42.44,69.45Z"/><path class="cls-3" d="M69.45,42.44H55.94A13.5,13.5,0,1,0,32.71,51.8h0L49.42,68.53h0a27,27,0,0,0,20-26.09Z"/><path class="cls-1" d="M84.88,42.44H69.44a27,27,0,0,1-20,26.09L61.34,80.45A42.44,42.44,0,0,0,84.88,42.44Z"/><path class="cls-4" d="M42.44,84.4A42.45,42.45,0,0,1,0,42.2v.24a42.44,42.44,0,0,0,84.88,0V42.2A42.44,42.44,0,0,1,42.44,84.4Z"/><path class="cls-5" d="M49.42,68.53l.38.38a27,27,0,0,0,19.65-26v-.48a27,27,0,0,1-20,26.09Z"/><path class="cls-2" d="M77.17,38.58H42.44a3.86,3.86,0,0,0,0,7.72H77.16a3.86,3.86,0,0,0,0-7.72Z"/><path class="cls-6" d="M77.17,38.58H42.44a3.86,3.86,0,0,0,0,7.72H77.16a3.86,3.86,0,0,0,0-7.72Z"/><circle class="cls-7" cx="7.72" cy="42.44" r="2.89"/><circle class="cls-7" cx="42.44" cy="7.72" r="2.89"/><circle class="cls-7" cx="42.44" cy="77.16" r="2.89"/><circle class="cls-7" cx="17.85" cy="17.89" r="2.89"/><circle class="cls-7" cx="17.85" cy="67.04" r="2.89"/><circle class="cls-8" cx="67.04" cy="67.04" r="2.89"/><path class="cls-9" d="M42.44,39.07H77.16A3.85,3.85,0,0,1,81,42.68c0-.08,0-.16,0-.24a3.86,3.86,0,0,0-3.86-3.86H42.44a3.86,3.86,0,0,0-3.86,3.86,1.94,1.94,0,0,0,0,.24A3.85,3.85,0,0,1,42.44,39.07Z"/><path class="cls-10" d="M81,42.68a3.87,3.87,0,0,1-3.85,3.62H42.44a3.85,3.85,0,0,1-3.84-3.62,1.94,1.94,0,0,0,0,.24,3.86,3.86,0,0,0,3.86,3.86H77.16A3.86,3.86,0,0,0,81,42.92,1.93,1.93,0,0,0,81,42.68Z"/><path class="cls-4" d="M42.44,15.92a26.92,26.92,0,0,1,19.1,7.91L72.69,12.67c-.09-.08-.16-.16-.24-.24L61.54,23.34a27,27,0,0,0-46.11,19.1c0,.08,0,.16,0,.24a27,27,0,0,1,27-26.76Z"/><circle class="cls-11" cx="42.44" cy="42.44" r="42.44"/></g></g></svg>