<svg xmlns="http://www.w3.org/2000/svg" viewBox="0 0 73.59 104.76"><defs><style>.cls-1{font-size:23.01px;font-family:Nexa-Bold, Nexa Bold;font-weight:700;letter-spacing:-0.05em;}.cls-1,.cls-3{fill:#fff;}.cls-2{letter-spacing:-0.04em;}</style></defs><title>Ресурс 2</title><g id="Слой_2" data-name="Слой 2"><g id="TEXTE"><text class="cls-1" transform="translate(5.54 98)">H<tspan class="cls-2" x="16.52" y="0">ome</tspan></text></g><g id="ALL_ICON" data-name="ALL ICON"><g id="Home"><path class="cls-3" d="M59.08,65H48.88a5,5,0,0,1-5.17-4.77V41.94H29.88V60.18A5,5,0,0,1,24.71,65H14.51a5,5,0,0,1-5.17-4.77V33.65H3.92A3.89,3.89,0,0,1,.26,31.31a3.41,3.41,0,0,1,1.07-4l32-26.1a5.64,5.64,0,0,1,7,0l32,26.1a3.41,3.41,0,0,1,1.07,4,3.89,3.89,0,0,1-3.66,2.34H64.24V60.18A5,5,0,0,1,59.08,65Zm-33.3-26.8h22v22a1,1,0,0,0,1.07,1h10.2a1,1,0,0,0,1.06-1V29.86h9L37.59,4.07a1.25,1.25,0,0,0-1.59,0L4.41,29.86h9V60.18a1,1,0,0,0,1.07,1h10.2a1,1,0,0,0,1.07-1Zm43.76-8h0l1.35-1.42Z"/></g></g></g></svg>