<svg xmlns="http://www.w3.org/2000/svg" xmlns:xlink="http://www.w3.org/1999/xlink" viewBox="0 0 59.75 93.03"><defs><style>.cls-1{fill:none;}.cls-2{font-size:25.86px;font-family:MyriadPro-Regular, Myriad Pro;}.cls-2,.cls-5{fill:#fff;}.cls-3{letter-spacing:-0.01em;}.cls-4{clip-path:url(#clip-path);}</style><clipPath id="clip-path"><circle class="cls-1" cx="29.88" cy="29.88" r="28.4"/></clipPath></defs><title>MAP_Ресурс 23</title><g id="Слой_2" data-name="Слой 2"><g id="TEXTE"><text class="cls-2" transform="translate(4.82 86.56)"><tspan class="cls-3">M</tspan><tspan x="20.53" y="0">AP</tspan></text></g><g id="ALL_ICON" data-name="ALL ICON"><g id="Map"><g class="cls-4"><path class="cls-5" d="M14.26,8.18c-1.8,1.08-1.84,1.54-4.31,2.54s-3,.69-4.78,3.78S.32,22.05.78,24.82.63,29.13,2.09,30.6a11.21,11.21,0,0,1,2.55,3.54c.3.69-.31,1.23-.31,2.39s.15,1.23,1.15,1.23,0,.77.85,2.16,1,1.77,2.16,5.16S12,53.32,15.11,55.56s-1.69-1.93-1.92-4,.84-2.08.84-3.7,1.54-.07,2-1.23-.16-2.62.38-4.24S17,39.61,15,38.76a9.9,9.9,0,0,1-4.24-3.31A6.89,6.89,0,0,0,8,33.06c-1.38-.77-2,.16-2.92-.46s-.54-.85-1.39-2.24-1.46-1-1.54-2.15,1.39-2.93,1.62-2.78,0,1.78.61,1.85-.23-1.69.47-2.85,1.23-2.77,2.77-3.69S9.26,18.89,11,18.58s0-2.16,1.16-2,1.92,1.23,2.15-.08.08-1-1.23-2.47S10.49,12,9.8,13.73,8.72,17,7.87,16.11a1.81,1.81,0,0,1,.39-2.77c.84-.39,2.62-2.23,3.85-1.46s2.54.54,2.77-.31-1.46-1.47-.54-2.39S17.12,7.87,17.12,9s-.78,2.31.23,2.7,3.46-1.08,4.16-1.24S24.28,10,25.44,9.1s2.46-2.39,3.15-2.85S25.74,5.56,24,6A50.61,50.61,0,0,1,18.19,7.1,10,10,0,0,0,14.26,8.18Z"/><path class="cls-5" d="M4.25,28c-.21.62.39-.16.77.92s-.62,1,.54,1.31,2.77.39,2.16-.38S4.4,27.51,4.25,28Z"/><path class="cls-5" d="M25.74,10c-.76.26-1.85.69-.69.84s3,0,2.7-.61S26.3,9.84,25.74,10Z"/><path class="cls-5" d="M48.55,42.77A2.44,2.44,0,0,0,46.93,44a10.52,10.52,0,0,0-.85,2.31c-.31.77.15,1.47.93.46S49.47,42.54,48.55,42.77Z"/><path class="cls-5" d="M28.82,12.18c-.77.87-2.23,2.62-1.31,2.47s1.62-1.39,1.7-.54,1.69.92,1.77.15S30.09,10.77,28.82,12.18Z"/><path class="cls-5" d="M57.71,20S52.94,9.8,50.78,10.18a29.1,29.1,0,0,1-4.31.39c-2,.15-.39-.93-1.24-1.47s-1.54,1.54-2.62,1.39A3.93,3.93,0,0,1,39.84,9c-1.31-1.24-2.77-.31-3.93.23a22.08,22.08,0,0,0-2.93,2c-.92.62.39.77,1.16,1.08a2.85,2.85,0,0,0,2.62-.16c.69-.53.31-1.31,1.31-1.69s-.08,1.39.31,2.31-1.08.93-2,1a5.15,5.15,0,0,1-2.85-.69c-1.46-.62-1.15,1.39-1.69,1.62s-2.62.92-2.47,1.69,1.39,1.54.31,1.39-2.46.54-2.54,1.38a2.87,2.87,0,0,0,1.46,2.24c.47.08,2.16-.46,2.47-1.31a3.28,3.28,0,0,1,2.23-1.85c1.24-.46,1.62,0,2.47,1.08s-.08.92.31,1.77,1-1.08,1.46-.91,1.85,1.68,2.08.83.54-1.07,1.08-.3,2.69.92,3.23,1.77-1.23,1.15-2,1-4-.08-4.78-.23a3.72,3.72,0,0,1-2.46-2.39c-.46-1.39-2.16-.31-3,.15s-3.24.7-3.9,1.16S26.59,24.05,25.59,25s-1.7,2.47-1.46,3.39-.08,3.47.84,5.16,3.47,2.31,5.32,2.31,2.93-.23,3.77.39,1.7,4.62,2,6S35,45.46,35.3,46.77s1.07,4.32,2.08,4.93,5.23-2.38,5.7-3.62A12.37,12.37,0,0,1,46,43.77c1.29-1.16,0-2.39.25-4.47s3.16-4.47,3.47-5.39-.69-.77-2.54-1.16-2.85-5.39-3.08-6.7.54.23,1.15,1.39,1.7,3.39,2.47,4.85,2-1,3.23-1.86a2.08,2.08,0,0,0,.7-2.76c-.31-.77-1.77-.85-2.39-1.62s-.15-1.39.62-.15a3,3,0,0,0,3,1.23c.85-.08,1.69,1.54,1.93,2.93a21.7,21.7,0,0,0,2,4.47s.08-2.78.23-3.93a2.87,2.87,0,0,1,1.85-2.55ZM30.6,33c-.85-.07-1.78,1-2.08.24s.76-1.9,1.77-1.85C32.14,31.44,31.44,33.06,30.6,33ZM44.46,19.35c-.84.15-1.54-.46-2.31-.23s-.72-.33-.23-1.23.93-.31,1.93.15S45.31,19.19,44.46,19.35ZM48.81,22c-.81.08-.34-1.31-1.41-2.31s-.51-1.37.45-1.77c.67-.28.16,1.07,1,1.84S49.62,21.89,48.81,22Z"/></g><path class="cls-5" d="M29.88,59.75A29.88,29.88,0,1,1,59.75,29.88,29.91,29.91,0,0,1,29.88,59.75Zm0-57A27.16,27.16,0,1,0,57,29.88,27.19,27.19,0,0,0,29.88,2.72Z"/></g></g></g></svg>