<svg xmlns="http://www.w3.org/2000/svg" viewBox="0 0 65.28 48.65"><defs><style>.cls-1{fill:#fff;}</style></defs><title>More_Ресурс 10</title><g id="Слой_2" data-name="Слой 2"><g id="ALL_ICON" data-name="ALL ICON"><g id="More"><path class="cls-1" d="M63.19,48.65H2.1a2.39,2.39,0,0,1,0-4.75H63.19a2.39,2.39,0,0,1,0,4.75ZM62.91,26.7H2.1A2.26,2.26,0,0,1,0,24.32,2.25,2.25,0,0,1,2.1,22H62.91A2.25,2.25,0,0,1,65,24.32,2.25,2.25,0,0,1,62.91,26.7Zm0-21.95H2.1A2.25,2.25,0,0,1,0,2.37,2.25,2.25,0,0,1,2.1,0H62.91A2.25,2.25,0,0,1,65,2.37,2.25,2.25,0,0,1,62.91,4.75Z"/></g></g></g></svg>