<svg xmlns="http://www.w3.org/2000/svg" viewBox="0 0 73.59 95.75"><defs><style>.cls-1{font-size:23.01px;font-family:Nexa-Bold, Nexa Bold;font-weight:700;letter-spacing:-0.05em;}.cls-1,.cls-4{fill:#fff;}.cls-2{letter-spacing:-0.04em;}.cls-3{letter-spacing:-0.05em;}</style></defs><title>More_L_Ресурс 9</title><g id="Слой_2" data-name="Слой 2"><g id="TEXTE"><text class="cls-1" transform="translate(9.6 88.98)">M<tspan class="cls-2" x="19.46" y="0">o</tspan><tspan class="cls-3" x="32.09" y="0">r</tspan><tspan class="cls-2" x="41" y="0">e</tspan></text></g><g id="ALL_ICON" data-name="ALL ICON"><g id="More"><path class="cls-4" d="M67.5,48.65H6.41a2.39,2.39,0,0,1,0-4.75H67.5a2.39,2.39,0,0,1,0,4.75ZM67.22,26.7H6.41a2.26,2.26,0,0,1-2.1-2.38A2.25,2.25,0,0,1,6.41,22H67.22a2.25,2.25,0,0,1,2.09,2.37A2.25,2.25,0,0,1,67.22,26.7Zm0-21.95H6.41a2.25,2.25,0,0,1-2.1-2.38A2.25,2.25,0,0,1,6.41,0H67.22a2.25,2.25,0,0,1,2.09,2.37A2.25,2.25,0,0,1,67.22,4.75Z"/></g></g></g></svg>