<svg xmlns="http://www.w3.org/2000/svg" viewBox="0 0 62.84 62.84"><defs><style>.cls-1{fill:#3f7fc0;}.cls-2{fill:#fff;fill-rule:evenodd;}</style></defs><title>Photo_Ресурс 15</title><g id="Слой_2" data-name="Слой 2"><g id="ALL_ICON" data-name="ALL ICON"><g id="Add_profile_picture" data-name="Add profile picture"><circle class="cls-1" cx="31.42" cy="31.42" r="31.42"/><path class="cls-2" d="M48.68,24.79a2.65,2.65,0,0,0-.27-.95,2.14,2.14,0,0,0-1.7-1.1h-8l-.55-2.82a1.68,1.68,0,0,0-1.64-1.37H26.31a1.67,1.67,0,0,0-1.64,1.37l-.56,2.82h-8a2.15,2.15,0,0,0-2,2.14V42.13a2.16,2.16,0,0,0,2.15,2.17H46.53a2.16,2.16,0,0,0,2.15-2.17V24.79Zm-17.26.88a7.91,7.91,0,0,1,3,.6h0A7.87,7.87,0,0,1,37,28h0a7.83,7.83,0,0,1,1.7,2.53h0a8,8,0,0,1,.6,3,7.86,7.86,0,0,1-.6,3h0A8,8,0,0,1,37,39.06h0a7.69,7.69,0,0,1-2.54,1.69h0a7.55,7.55,0,0,1-3,.6,7.46,7.46,0,0,1-3-.6h0a7.73,7.73,0,0,1-2.55-1.69h0a8,8,0,0,1-1.7-2.55h0a7.85,7.85,0,0,1-.59-3,8,8,0,0,1,.59-3h0A7.83,7.83,0,0,1,25.88,28h0a7.91,7.91,0,0,1,2.55-1.7h0a7.82,7.82,0,0,1,3-.6Zm3.74,4.1a5.27,5.27,0,0,0-5.77-1.14,5.28,5.28,0,0,0-2.86,2.86,5.21,5.21,0,0,0-.4,2,5.11,5.11,0,0,0,.4,2,5.3,5.3,0,0,0,1.15,1.72,5.35,5.35,0,0,0,5.77,1.16,5.4,5.4,0,0,0,2.86-2.88,5.11,5.11,0,0,0,.4-2,5.21,5.21,0,0,0-.4-2,5.41,5.41,0,0,0-1.15-1.72Z"/></g></g></g></svg>