<svg xmlns="http://www.w3.org/2000/svg" viewBox="0 0 57.21 57.21"><defs><style>.cls-1{fill:#808285;}</style></defs><title>QRProfileLogo_Ресурс 32</title><g id="Слой_2" data-name="Слой 2"><g id="Screen_3_Shadow" data-name="Screen 3 / Shadow"><g id="Screen_3" data-name="Screen 3"><path class="cls-1" d="M57.21,25.62H31.59V0H57.21ZM34.15,23.06h20.5V2.56H34.15Z"/><path class="cls-1" d="M47.44,15.86H41.36V9.77h6.08Zm-3.52-2.57h1v-1h-1Z"/><path class="cls-1" d="M25.62,25.62H0V0H25.62ZM2.56,23.06h20.5V2.56H2.56Z"/><path class="cls-1" d="M15.86,15.86H9.77V9.77h6.09Zm-3.53-2.57h1v-1h-1Z"/><path class="cls-1" d="M57.21,57.21H31.59V31.59H57.21ZM34.15,54.65h20.5V34.15H34.15Z"/><path class="cls-1" d="M47.44,47.44H41.36V41.36h6.08Zm-3.52-2.56h1v-1h-1Z"/><path class="cls-1" d="M6.91,38.5H.82V32.41H6.91ZM3.38,35.93h1V35h-1Z"/><path class="cls-1" d="M24.88,38.5H18.79V32.41h6.09Zm-3.53-2.57h1V35h-1Z"/><path class="cls-1" d="M6.9,56.39H.81V50.31H6.9ZM3.37,53.83h1v-1h-1Z"/><path class="cls-1" d="M24.87,56.39H18.78V50.31h6.09Zm-3.53-2.56h1v-1h-1Z"/><path class="cls-1" d="M15.89,47.45H9.8V41.36h6.09Zm-3.53-2.57h1v-1h-1Z"/></g></g></g></svg>