<svg xmlns="http://www.w3.org/2000/svg" viewBox="0 0 64.02 64.94"><defs><style>.cls-1{fill:#fff;fill-rule:evenodd;}</style></defs><title>Ranking_Ресурс 4</title><g id="Слой_2" data-name="Слой 2"><g id="ALL_ICON" data-name="ALL ICON"><path id="Ranking" class="cls-1" d="M27.15,48.41A2.24,2.24,0,0,0,25,50.59a2.36,2.36,0,0,0,.14.68h13.8a2.25,2.25,0,0,0,.07-.68,2.18,2.18,0,0,0-2.11-2.18h-.74V36.11h.74a2.16,2.16,0,0,0,1.5-3.67c-.75.2-1.5.33-2.24.47a21.08,21.08,0,0,1-4.15.34,20.82,20.82,0,0,1-4.08-.34c-.75-.14-1.5-.27-2.25-.47A2.23,2.23,0,0,0,25,34a2.18,2.18,0,0,0,2.18,2.11h.75v12.3Zm7.28-36.78L32.52,5l-1.9,6.6-.07.2H24.09l5.1,4.08.14.14-.07.13-1.91,6.6,5-4.08.13-.07.14.07,5,4.08-1.9-6.6-.07-.13.13-.14L41,11.83H34.49Zm29.51-10A1.84,1.84,0,0,0,62.17,0H1.85A1.77,1.77,0,0,0,.09,1.63a24.15,24.15,0,0,0,6.8,18.7A20.8,20.8,0,0,0,11,23.53c1.42,1,3.26,1.7,4.15,3.33A2,2,0,0,1,14,29.71c-.14,0-.27.07-.41.07a2.06,2.06,0,0,1-1.84-2,1.34,1.34,0,0,0-1.42-1.36,1.4,1.4,0,0,0-1.5,1.36A5,5,0,0,0,12,32.37a4,4,0,0,0,1.56.27,5,5,0,0,0,3.67-1.77,4.4,4.4,0,0,0,1-3.6,22.79,22.79,0,0,0,9.66,4.14,20.17,20.17,0,0,0,4.08.41,20.35,20.35,0,0,0,4.15-.41,22.75,22.75,0,0,0,9.65-4.14,4.47,4.47,0,0,0,1,3.6,4.75,4.75,0,0,0,3.67,1.77A4.33,4.33,0,0,0,52,32.37a5.13,5.13,0,0,0,3.19-4.63,1.39,1.39,0,0,0-1.49-1.36,1.34,1.34,0,0,0-1.43,1.36,2.11,2.11,0,0,1-1.84,2c-.13,0-.27-.07-.4-.07a1.94,1.94,0,0,1-1.16-2.85c.88-1.63,2.65-2.38,4.15-3.33a19,19,0,0,0,4-3.2,24,24,0,0,0,6.87-18.7ZM2.88,3.33a1,1,0,0,1,.06-.41H9.67A23.54,23.54,0,0,0,8.93,8.7a23.2,23.2,0,0,0,3.6,12.38A21.15,21.15,0,0,1,2.88,3.33ZM51.49,21.08A22.91,22.91,0,0,0,54.35,2.92h6.73c0,.14.07.28.07.41a21.14,21.14,0,0,1-9.66,17.75ZM46.94,64.19V56.3a.82.82,0,0,0-.82-.75H44a.82.82,0,0,1-.81-.74V53.45a.76.76,0,0,0-.75-.75H21.51a.76.76,0,0,0-.75.75v1.36a.77.77,0,0,1-.82.74H17.83a.82.82,0,0,0-.81.75v7.89a.82.82,0,0,0,.81.75H46.12a.82.82,0,0,0,.82-.75Z"/></g></g></svg>