<svg xmlns="http://www.w3.org/2000/svg" viewBox="0 0 192.62 104.36"><defs><style>.cls-1{font-size:23px;font-family:Nexa-Bold, Nexa Bold;font-weight:700;letter-spacing:-0.06em;}.cls-1,.cls-3{fill:#fff;}.cls-2{letter-spacing:-0.04em;}.cls-3{fill-rule:evenodd;}</style></defs><title>Ranking_L_Ресурс 3</title><g id="Слой_2" data-name="Слой 2"><g id="TEXTE"><text class="cls-1" transform="translate(53.89 97.6)">R<tspan class="cls-2" x="15.11" y="0">anking</tspan></text></g><g id="ALL_ICON" data-name="ALL ICON"><path id="Ranking" class="cls-3" d="M91.45,48.41a2.24,2.24,0,0,0-2.18,2.18,2.36,2.36,0,0,0,.14.68h13.8a2.25,2.25,0,0,0,.07-.68,2.18,2.18,0,0,0-2.11-2.18h-.74V36.11h.74a2.16,2.16,0,0,0,1.5-3.67c-.75.2-1.5.33-2.24.47a21.08,21.08,0,0,1-4.15.34,20.82,20.82,0,0,1-4.08-.34c-.75-.14-1.5-.27-2.25-.47A2.23,2.23,0,0,0,89.27,34a2.18,2.18,0,0,0,2.18,2.11h.75v12.3Zm7.28-36.78L96.82,5l-1.9,6.6-.07.2H88.39l5.1,4.08.14.14-.07.13-1.91,6.6,5-4.08.13-.07.14.07,5,4.08-1.9-6.6-.07-.13.13-.14,5.1-4.08H98.79Zm29.51-10A1.84,1.84,0,0,0,126.47,0H66.15a1.77,1.77,0,0,0-1.76,1.63,24.15,24.15,0,0,0,6.8,18.7,20.8,20.8,0,0,0,4.08,3.2c1.42,1,3.26,1.7,4.15,3.33a2,2,0,0,1-1.16,2.85c-.14,0-.27.07-.41.07a2.06,2.06,0,0,1-1.84-2,1.34,1.34,0,0,0-1.42-1.36,1.4,1.4,0,0,0-1.5,1.36,5,5,0,0,0,3.2,4.63,4,4,0,0,0,1.56.27,5,5,0,0,0,3.67-1.77,4.4,4.4,0,0,0,1-3.6,22.79,22.79,0,0,0,9.66,4.14,20.17,20.17,0,0,0,4.08.41,20.35,20.35,0,0,0,4.15-.41,22.75,22.75,0,0,0,9.65-4.14,4.47,4.47,0,0,0,1,3.6,4.75,4.75,0,0,0,3.67,1.77,4.33,4.33,0,0,0,1.57-.27,5.13,5.13,0,0,0,3.19-4.63A1.39,1.39,0,0,0,118,26.38a1.34,1.34,0,0,0-1.43,1.36,2.11,2.11,0,0,1-1.84,2c-.13,0-.27-.07-.4-.07a1.94,1.94,0,0,1-1.16-2.85c.88-1.63,2.65-2.38,4.15-3.33a19,19,0,0,0,4-3.2,24,24,0,0,0,6.87-18.7ZM67.18,3.33a1,1,0,0,1,.06-.41H74a23.54,23.54,0,0,0-.74,5.78,23.2,23.2,0,0,0,3.6,12.38A21.15,21.15,0,0,1,67.18,3.33Zm48.61,17.75a22.91,22.91,0,0,0,2.86-18.16h6.73c0,.14.07.28.07.41a21.14,21.14,0,0,1-9.66,17.75Zm-4.55,43.11V56.3a.82.82,0,0,0-.82-.75h-2.11a.82.82,0,0,1-.81-.74V53.45a.76.76,0,0,0-.75-.75H85.81a.76.76,0,0,0-.75.75v1.36a.77.77,0,0,1-.82.74H82.13a.82.82,0,0,0-.81.75v7.89a.82.82,0,0,0,.81.75h28.29a.82.82,0,0,0,.82-.75Z"/></g></g></svg>