<svg xmlns="http://www.w3.org/2000/svg" viewBox="0 0 81.48 38.08"><defs><style>.cls-1{fill:#fff;}</style></defs><title>Roster_Ресурс 21</title><g id="Слой_2" data-name="Слой 2"><g id="ALL_ICON" data-name="ALL ICON"><g id="Roster"><path class="cls-1" d="M25,18.59a17.76,17.76,0,0,0-5-2.12,8.58,8.58,0,1,0-6.75,0,17.56,17.56,0,0,0-5,2.11C2.56,22.08,0,27.64,0,36.59a1.5,1.5,0,0,0,3,0c0-9.93,3.47-13.38,6.87-15.45,4.65-2.82,9-2.82,13.62,0A1.49,1.49,0,0,0,25,18.59M11.65,11.1a5.65,5.65,0,0,1-.59-2.52,5.58,5.58,0,1,1,.59,2.52"/><path class="cls-1" d="M73.18,18.59a17.74,17.74,0,0,0-5-2.11,8.57,8.57,0,0,0,5.21-7.9,8.58,8.58,0,0,0-17.16,0,8.55,8.55,0,0,0,5.2,7.89,17.76,17.76,0,0,0-5,2.12A1.49,1.49,0,1,0,58,21.14c4.65-2.82,9-2.82,13.62,0,3.4,2.07,6.87,5.52,6.87,15.45a1.5,1.5,0,0,0,3,0c0-9-2.56-14.51-8.3-18M59.83,11.1a5.61,5.61,0,0,1,5-8.11,5.59,5.59,0,0,1,5.59,5.59,5.65,5.65,0,0,1-.59,2.52,5.6,5.6,0,0,1-10,0"/><path class="cls-1" d="M49.13,18.59a17.82,17.82,0,0,0-5-2.12,8.59,8.59,0,1,0-6.74,0,17.49,17.49,0,0,0-5,2.11c-5.74,3.49-8.31,9.05-8.31,18a1.5,1.5,0,0,0,3,0c0-9.93,3.48-13.38,6.87-15.45,4.65-2.82,9-2.82,13.62,0,3.4,2.07,6.87,5.52,6.87,15.45a1.5,1.5,0,0,0,3,0c0-9-2.56-14.51-8.3-18M35.75,11.1a5.53,5.53,0,0,1-.6-2.52,5.6,5.6,0,1,1,.6,2.52"/></g></g></g></svg>