<svg xmlns="http://www.w3.org/2000/svg" viewBox="0 0 42.57 62.15"><defs><style>.cls-1,.cls-2{fill:#fff;}.cls-1{fill-rule:evenodd;}</style></defs><title>SandC_Ресурс 18</title><g id="Слой_2" data-name="Слой 2"><g id="ALL_ICON" data-name="ALL ICON"><g id="In_progress" data-name="In progress"><path class="cls-1" d="M20.54,29.24h0c0-3.86-10.33-4.81-13.46-12.89A6.57,6.57,0,0,1,6.94,13H35.63a6.57,6.57,0,0,1-.14,3.34C32.37,24.43,22,25.38,22,29.24H20.54Z"/><rect class="cls-2" x="20.54" y="27.52" width="1.49" height="22.9"/><polygon class="cls-1" points="21.29 47.28 9.82 53.74 32.75 53.74 21.29 47.28"/><path class="cls-2" d="M24.05,57.42H6.34l-.27-.31A13.44,13.44,0,0,1,3,50.72a13.3,13.3,0,0,1,.45-7.09c1.88-4.84,6.06-7.22,9.38-9.1,2.24-1.28,4-2.29,4-3.45s-1.78-2.18-4-3.45c-3.32-1.89-7.5-4.27-9.38-9.1A13.34,13.34,0,0,1,3,11.43,13.48,13.48,0,0,1,6.07,5l.27-.31H36.23L36.5,5a13.58,13.58,0,0,1,3.06,6.39,13.24,13.24,0,0,1-.46,7.1c-1.87,4.83-6.05,7.21-9.37,9.1-2.24,1.27-4,2.28-4,3.45s1.78,2.17,4,3.45c3.32,1.88,7.5,4.26,9.37,9.1a13.19,13.19,0,0,1,.46,7.09,13.53,13.53,0,0,1-3.06,6.39l-.27.31ZM7.17,55.58H35.39a11.78,11.78,0,0,0,2.37-5.21,11.39,11.39,0,0,0-.37-6.08c-1.63-4.23-5.49-6.42-8.56-8.17-2.76-1.57-5-2.82-5-5s2.2-3.48,5-5c3.07-1.74,6.93-3.94,8.56-8.17a11.38,11.38,0,0,0,.37-6.08,11.88,11.88,0,0,0-2.37-5.21H7.17a11.74,11.74,0,0,0-2.35,5.21,11.39,11.39,0,0,0,.35,6.08c1.64,4.23,5.5,6.43,8.57,8.17,2.76,1.57,5,2.82,5,5s-2.2,3.47-5,5c-3.07,1.75-6.93,3.94-8.57,8.17a11.4,11.4,0,0,0-.35,6.08,11.64,11.64,0,0,0,2.35,5.21Z"/><path class="cls-1" d="M2.7,4.28H39.87a2.3,2.3,0,0,1-2.29,2.29H5A2.3,2.3,0,0,1,2.7,4.28Z"/><path class="cls-1" d="M2.19,0H40.38a2.2,2.2,0,0,1,2.19,2.19h0a2.2,2.2,0,0,1-2.19,2.19H2.19A2.2,2.2,0,0,1,0,2.19H0A2.2,2.2,0,0,1,2.19,0Z"/><path class="cls-1" d="M2.7,57.88H39.87a2.3,2.3,0,0,0-2.29-2.3H5a2.3,2.3,0,0,0-2.29,2.3Z"/><path class="cls-1" d="M2.19,62.15H40.38A2.19,2.19,0,0,0,42.57,60h0a2.2,2.2,0,0,0-2.19-2.2H2.19A2.2,2.2,0,0,0,0,60H0a2.19,2.19,0,0,0,2.19,2.18Z"/></g></g></g></svg>