<svg xmlns="http://www.w3.org/2000/svg" viewBox="0 0 76.44 56.84"><defs><style>.cls-1{fill:#fff;}</style></defs><title>Statists_Ресурс 20</title><g id="Слой_2" data-name="Слой 2"><g id="ALL_ICON" data-name="ALL ICON"><g id="Statistics"><path class="cls-1" d="M65.25,5a6.87,6.87,0,0,0-5,4.36,6.7,6.7,0,0,0,.27,5.32L52.59,24.5a2.88,2.88,0,0,0,.29,3.95l0,0a2.91,2.91,0,0,0,4.24-.3l7.89-9.77c1.79.42,3.76.36,6.22-2a6.58,6.58,0,0,0,2.23-4.68A6.86,6.86,0,0,0,65.25,5Z"/><path class="cls-1" d="M19.6,38.22a6.86,6.86,0,0,0,6.86-6.86,7,7,0,0,0-.18-1.52l5.52-5.52a7,7,0,0,0,1.52.18,6.82,6.82,0,0,0,1.57-.2L40,32.74a6.79,6.79,0,0,0-1.73,4.5,6.86,6.86,0,1,0,7.19-6.82L39.5,20.57a6.71,6.71,0,0,0,.68-2.93,6.86,6.86,0,1,0-13,3l-4.58,4.58a6.85,6.85,0,1,0-3,13ZM73.5,51H5.88v-48A2.94,2.94,0,0,0,0,2.94v51a2.94,2.94,0,0,0,2.94,2.94H73.5a2.94,2.94,0,1,0,0-5.88Z"/></g></g></g></svg>