<svg xmlns="http://www.w3.org/2000/svg" viewBox="0 0 65.31 65.31"><defs><style>.cls-1{fill:#fff;}</style></defs><title>Watch_Ресурс 8</title><g id="Слой_2" data-name="Слой 2"><g id="ALL_ICON" data-name="ALL ICON"><g id="Watch"><path class="cls-1" d="M32.66,65.31A32.66,32.66,0,1,1,65.31,32.66,32.69,32.69,0,0,1,32.66,65.31Zm0-61.17A28.52,28.52,0,1,0,61.18,32.66,28.55,28.55,0,0,0,32.66,4.14Z"/><path class="cls-1" d="M26.55,51.5a4.24,4.24,0,0,1-4.23-4.22V19.33A4.23,4.23,0,0,1,29.08,16l18.64,14a4.22,4.22,0,0,1,0,6.75l-18.64,14A4.23,4.23,0,0,1,26.55,51.5Zm.05-32.24-.14.07v28l.14.06,18.64-14v-.13Z"/></g></g></g></svg>