<svg xmlns="http://www.w3.org/2000/svg" viewBox="0 0 91.86 105.12"><defs><style>.cls-1{font-size:23.01px;font-family:Nexa-Bold, Nexa Bold;font-weight:700;letter-spacing:-0.09em;}.cls-1,.cls-3{fill:#fff;}.cls-2{letter-spacing:-0.04em;}</style></defs><title>Watch_L_Ресурс 7</title><g id="Слой_2" data-name="Слой 2"><g id="TEXTE"><text class="cls-1" transform="translate(11.26 98.35)">W<tspan class="cls-2" x="22.55" y="0">atch</tspan></text></g><g id="ALL_ICON" data-name="ALL ICON"><g id="Watch"><path class="cls-3" d="M45.93,65.31A32.66,32.66,0,1,1,78.59,32.66,32.69,32.69,0,0,1,45.93,65.31Zm0-61.17A28.52,28.52,0,1,0,74.45,32.66,28.55,28.55,0,0,0,45.93,4.14Z"/><path class="cls-3" d="M39.83,51.5a4.28,4.28,0,0,1-1.9-.45,4.19,4.19,0,0,1-2.33-3.77V19.33A4.22,4.22,0,0,1,42.35,16L61,29.93a4.22,4.22,0,0,1,0,6.75l-18.64,14A4.18,4.18,0,0,1,39.83,51.5Zm0-32.24-.13.07v28l.13.06,18.64-14v-.13Z"/></g></g></g></svg>