<svg width="121" height="89" viewBox="0 0 121 89" fill="none" xmlns="http://www.w3.org/2000/svg">
<path d="M99.0647 18.9134C103.259 15.4568 104.581 10.1339 102.018 7.02432C99.4555 3.91472 93.978 4.19596 89.784 7.65251C85.5899 11.109 84.2676 16.432 86.8303 19.5416C89.3931 22.6512 94.8706 22.3699 99.0647 18.9134Z" fill="#9381E0"/>
<path fill-rule="evenodd" clip-rule="evenodd" d="M100.901 12.2985C101.308 10.6582 101.014 9.32933 100.289 8.44943C99.564 7.56953 98.3157 7.02724 96.6278 7.11391C94.9402 7.20056 92.9728 7.92814 91.2091 9.38168C89.4454 10.8352 88.3554 12.6274 87.948 14.2674C87.5405 15.9077 87.8343 17.2366 88.5595 18.1165C89.2847 18.9964 90.5329 19.5387 92.2209 19.452C93.9085 19.3653 95.8759 18.6377 97.6396 17.1842C99.4032 15.7307 100.493 13.9385 100.901 12.2985ZM102.018 7.02432C104.581 10.1339 103.259 15.4568 99.0647 18.9134C94.8706 22.3699 89.3931 22.6512 86.8303 19.5416C84.2676 16.432 85.5899 11.109 89.784 7.65251C93.978 4.19596 99.4555 3.91472 102.018 7.02432Z" fill="#2E2525"/>
<path d="M21.9039 18.9306C26.0979 22.3872 31.5755 22.6684 34.1382 19.5588C36.701 16.4492 35.3786 11.1263 31.1846 7.66976C26.9906 4.21321 21.5131 3.93196 18.9503 7.04157C16.3875 10.1512 17.7099 15.4741 21.9039 18.9306Z" fill="#9381E0"/>
<path fill-rule="evenodd" clip-rule="evenodd" d="M28.7477 19.4692C30.4357 19.5559 31.6839 19.0136 32.4091 18.1337C33.1342 17.2538 33.4281 15.925 33.0206 14.2846C32.6132 12.6447 31.5232 10.8525 29.7595 9.39893C27.9958 7.94539 26.0284 7.21781 24.3408 7.13116C22.6528 7.04449 21.4046 7.58678 20.6794 8.46667C19.9543 9.34657 19.6604 10.6754 20.0679 12.3157C20.4753 13.9557 21.5653 15.7479 23.329 17.2015C25.0927 18.655 27.0601 19.3826 28.7477 19.4692ZM34.1382 19.5588C31.5755 22.6684 26.0979 22.3872 21.9039 18.9306C17.7099 15.4741 16.3875 10.1512 18.9503 7.04157C21.5131 3.93196 26.9906 4.21321 31.1846 7.66976C35.3786 11.1263 36.701 16.4492 34.1382 19.5588Z" fill="#2E2525"/>
<path d="M105.886 59.9073C105.886 84.3095 85.5607 88.9999 60.484 88.9999C35.4074 88.9999 15.0824 84.3095 15.0824 59.9073C15.0824 35.505 35.4074 0.679688 60.484 0.679688C85.5607 0.679688 105.886 35.5357 105.886 59.9073Z" fill="#D5CBFF"/>
<path d="M100.821 73.8594C102.927 70.3102 104.145 65.7636 104.145 59.9073C104.145 48.1379 99.2104 33.6724 91.1616 22.151C83.0875 10.5935 72.1946 2.42042 60.484 2.42042C48.7729 2.42042 37.88 10.5865 29.8063 22.1398C21.7578 33.657 16.8231 48.1224 16.8231 59.9073C16.8231 65.7636 18.0408 70.3102 20.147 73.8594C22.25 77.4034 25.3072 80.0681 29.1752 82.0562C36.9931 86.0746 47.9766 87.2592 60.484 87.2592C72.9915 87.2592 83.975 86.0746 91.7929 82.0562C95.6609 80.0681 98.718 77.4034 100.821 73.8594ZM105.386 59.9073C105.386 65.9377 104.13 70.7138 101.888 74.4925C99.6466 78.2698 96.3991 81.0837 92.36 83.1597C84.2585 87.3239 73.0135 88.4999 60.484 88.4999C47.9545 88.4999 36.7095 87.3239 28.608 83.1597C24.569 81.0837 21.3215 78.2698 19.08 74.4925C16.8376 70.7138 15.5824 65.9377 15.5824 59.9073C15.5824 47.8257 20.6215 33.1169 28.7893 21.429C36.9642 9.73094 48.1832 1.17969 60.484 1.17969C72.7847 1.17969 84.0037 9.73839 92.1787 21.4405C100.347 33.1323 105.386 47.8411 105.386 59.9073Z" fill="#D5CBFF" stroke="black"/>
<path d="M60.9762 60.03V72.0472C60.9762 72.9056 61.6813 73.6413 62.5703 73.6413H66.0651C66.8009 73.6413 67.4446 73.1202 67.5979 72.3844L70.2343 60.0607H60.9762V60.03Z" fill="white"/>
<path fill-rule="evenodd" clip-rule="evenodd" d="M65.517 71.399H63.2169V62.2998H67.4636L65.517 71.399ZM60.9762 60.0591V72.0456C60.9762 72.904 61.6813 73.6397 62.5703 73.6397H66.0651C66.8009 73.6397 67.4446 73.1186 67.5979 72.3828L70.2343 60.0591H60.9762Z" fill="#2E2525"/>
<path d="M59.9974 60.0303V72.0475C59.9974 72.9058 59.2923 73.6416 58.4032 73.6416H54.9084C54.1727 73.6416 53.5289 73.1204 53.3756 72.3847L50.7392 60.0609H59.9974V60.0303Z" fill="white"/>
<path fill-rule="evenodd" clip-rule="evenodd" d="M55.4569 71.4007H57.7569V62.3015H53.5103L55.4569 71.4007ZM50.7395 60.0608H59.9976V72.0473C59.9976 72.9057 59.2925 73.6414 58.4035 73.6414H54.9087C54.173 73.6414 53.5292 73.1203 53.3759 72.3845L50.7395 60.0608Z" fill="#2E2525"/>
<path d="M60.486 41.5127C56.654 41.5127 53.0673 42.8309 50.6761 45.0381C45.6178 49.7285 40.4983 52.273 40.4983 57.9444C40.4983 62.2362 45.1887 65.731 50.952 65.731C55.2132 65.731 58.8613 63.8303 60.486 61.1019C62.1108 63.8303 65.7589 65.731 70.0201 65.731C75.7834 65.731 80.4738 62.2362 80.4738 57.9444C80.4738 52.3036 75.3849 49.7592 70.296 45.0381C67.9048 42.8309 64.318 41.5127 60.486 41.5127Z" fill="#E6E9EE"/>
<path fill-rule="evenodd" clip-rule="evenodd" d="M61.9824 62.9052C63.8935 64.6318 66.7795 65.731 70.0201 65.731C75.7834 65.731 80.4738 62.2362 80.4738 57.9444C80.4738 53.5967 77.4506 51.0884 73.7344 48.0052C72.6291 47.0882 71.4625 46.1204 70.296 45.0381C67.9048 42.8309 64.318 41.5127 60.486 41.5127C56.654 41.5127 53.0673 42.8309 50.6761 45.0381C49.5138 46.1159 48.3483 47.0803 47.2424 47.9954C43.5354 51.0629 40.4983 53.5761 40.4983 57.9444C40.4983 62.2362 45.1887 65.731 50.952 65.731C54.1926 65.731 57.0785 64.6318 58.9897 62.9052C59.5916 62.3614 60.0969 61.7554 60.486 61.1019C60.8752 61.7554 61.3804 62.3614 61.9824 62.9052ZM68.7743 46.6829C66.8556 44.913 63.8391 43.7534 60.486 43.7534C57.133 43.7534 54.1164 44.913 52.1978 46.6829C50.9874 47.8051 49.7754 48.808 48.6763 49.7174C48.577 49.7995 48.4786 49.8809 48.3812 49.9616C47.1812 50.9556 46.1497 51.8241 45.2827 52.6999C43.5959 54.4036 42.739 55.9231 42.739 57.9444C42.739 59.2177 43.4306 60.5537 44.9025 61.6502C46.3733 62.7459 48.5066 63.4903 50.952 63.4903C54.6288 63.4903 57.4351 61.8457 58.5608 59.9555L60.486 56.7225L62.4112 59.9555C63.5369 61.8457 66.3433 63.4903 70.0201 63.4903C72.4655 63.4903 74.5987 62.7459 76.0696 61.6502C77.5415 60.5537 78.2331 59.2177 78.2331 57.9444C78.2331 55.938 77.3835 54.4257 75.6993 52.7213C74.8338 51.8453 73.8029 50.9747 72.6015 49.977C72.5016 49.894 72.4007 49.8103 72.2988 49.7257C71.2001 48.8143 69.9879 47.8087 68.7743 46.6829Z" fill="#2E2525"/>
<path d="M70.0796 42.1572C70.0796 45.8972 65.7878 50.7102 60.4843 50.7102C55.1808 50.7102 50.8889 45.8972 50.8889 42.1572C50.8889 38.4171 55.1808 37.1602 60.4843 37.1602C65.7878 37.1296 70.0796 38.3865 70.0796 42.1572Z" fill="#324A5E"/>
<path fill-rule="evenodd" clip-rule="evenodd" d="M60.4972 39.4009L60.4843 39.401C57.9439 39.4009 55.9223 39.7118 54.6178 40.2993C53.9892 40.5824 53.6301 40.8841 53.4318 41.1472C53.2548 41.382 53.1296 41.6826 53.1296 42.1572C53.1296 43.2409 53.8081 44.8324 55.2516 46.2218C56.6538 47.5713 58.5187 48.4695 60.4843 48.4695C62.4498 48.4695 64.3147 47.5713 65.7169 46.2218C67.1604 44.8324 67.8389 43.2409 67.8389 42.1572C67.8389 41.6705 67.711 41.3626 67.5329 41.1249C67.3342 40.8597 66.9762 40.558 66.3507 40.2763C65.0513 39.6912 63.0344 39.3862 60.4972 39.4009ZM60.4843 50.7102C65.7878 50.7102 70.0796 45.8972 70.0796 42.1572C70.0796 38.3865 65.7878 37.1296 60.4843 37.1602C55.1808 37.1602 50.8889 38.4171 50.8889 42.1572C50.8889 45.8972 55.1808 50.7102 60.4843 50.7102Z" fill="#2E2525"/>
<path d="M76.6726 32.5326C78.7721 32.5326 80.474 30.8307 80.474 28.7313C80.474 26.6319 78.7721 24.9299 76.6726 24.9299C74.5732 24.9299 72.8713 26.6319 72.8713 28.7313C72.8713 30.8307 74.5732 32.5326 76.6726 32.5326Z" fill="#324A5E"/>
<path fill-rule="evenodd" clip-rule="evenodd" d="M76.6726 30.2919C77.5346 30.2919 78.2333 29.5932 78.2333 28.7313C78.2333 27.8694 77.5346 27.1707 76.6726 27.1707C75.8107 27.1707 75.112 27.8694 75.112 28.7313C75.112 29.5932 75.8107 30.2919 76.6726 30.2919ZM80.474 28.7313C80.474 30.8307 78.7721 32.5326 76.6726 32.5326C74.5732 32.5326 72.8713 30.8307 72.8713 28.7313C72.8713 26.6319 74.5732 24.9299 76.6726 24.9299C78.7721 24.9299 80.474 26.6319 80.474 28.7313Z" fill="#2E2525"/>
<path d="M44.2983 32.5326C46.3978 32.5326 48.0997 30.8307 48.0997 28.7313C48.0997 26.6319 46.3978 24.9299 44.2983 24.9299C42.1989 24.9299 40.497 26.6319 40.497 28.7313C40.497 30.8307 42.1989 32.5326 44.2983 32.5326Z" fill="#324A5E"/>
<path fill-rule="evenodd" clip-rule="evenodd" d="M44.2983 30.2919C45.1603 30.2919 45.859 29.5932 45.859 28.7313C45.859 27.8694 45.1603 27.1707 44.2983 27.1707C43.4364 27.1707 42.7377 27.8694 42.7377 28.7313C42.7377 29.5932 43.4364 30.2919 44.2983 30.2919ZM48.0997 28.7313C48.0997 30.8307 46.3978 32.5326 44.2983 32.5326C42.1989 32.5326 40.497 30.8307 40.497 28.7313C40.497 26.6319 42.1989 24.9299 44.2983 24.9299C46.3978 24.9299 48.0997 26.6319 48.0997 28.7313Z" fill="#2E2525"/>
<path d="M108.827 75.2997C111.74 76.8018 113.671 77.8135 113.671 77.8135C113.671 77.8135 113.242 77.4763 112.445 76.9244C111.648 76.3726 110.544 75.5449 109.165 74.7172C107.785 73.8282 106.13 72.8472 104.321 71.8968C102.512 70.9159 100.52 69.9655 98.5269 69.0765C94.5109 67.2984 90.3724 65.8576 87.2148 64.9686C84.0572 64.0489 81.8806 63.7117 81.8806 63.7117C81.8806 63.7117 90.1271 66.6547 98.0364 70.1801C101.991 71.9275 105.915 73.7975 108.827 75.2997Z" fill="#324A5E"/>
<path d="M119.437 85.0763C118.456 84.3713 117.046 83.3289 115.267 82.2253C114.378 81.6429 113.428 81.0297 112.416 80.4166C111.374 79.8035 110.332 79.0984 109.167 78.5159C106.868 77.259 104.415 75.9408 101.901 74.7146C99.3876 73.519 96.8125 72.4154 94.3907 71.4037C91.9689 70.3921 89.6697 69.595 87.677 68.9206C83.7224 67.6024 80.994 66.9893 80.994 66.9893C80.994 66.9893 83.5998 67.9703 87.4624 69.5644C89.3938 70.3308 91.601 71.3424 93.9922 72.3541C96.3833 73.3964 98.8971 74.5613 101.38 75.7875C103.894 76.9525 106.377 78.2094 108.676 79.405C110.976 80.6312 113.152 81.7348 114.93 82.7771C118.578 84.8311 121 86.2106 121 86.2106C121 86.2106 120.418 85.7814 119.437 85.0763Z" fill="#324A5E"/>
<path d="M99.7546 79.7426C98.8042 78.9762 97.7006 78.0871 96.4437 77.2288C95.2174 76.3397 93.8379 75.4814 92.4277 74.6843C89.638 73.0595 86.695 71.68 84.4265 70.791C82.1579 69.902 80.5945 69.5034 80.5945 69.5034C80.5945 69.5034 82.0047 70.2698 84.1199 71.4041C86.2352 72.5384 89.0249 74.1018 91.784 75.7266C94.543 77.3207 97.2714 78.9762 99.2947 80.2944C101.318 81.5819 102.667 82.471 102.667 82.471C102.667 82.471 102.391 82.1951 101.87 81.7046C101.441 81.2141 100.736 80.4783 99.7546 79.7426Z" fill="#324A5E"/>
<path d="M22.9316 70.1801C30.8716 66.6547 39.0874 63.7117 39.0874 63.7117C39.0874 63.7117 36.9108 64.0795 33.7532 64.9686C30.5957 65.8576 26.4264 67.2984 22.4411 69.0765C20.4485 69.9655 18.4558 70.9159 16.6471 71.8968C14.8384 72.8472 13.183 73.8588 11.8035 74.7172C10.3933 75.5756 9.28967 76.3726 8.52326 76.9244C7.75686 77.4763 7.29702 77.8135 7.29702 77.8135C7.29702 77.8135 9.22836 76.8018 12.1407 75.2997C15.053 73.7975 18.977 71.9275 22.9316 70.1801Z" fill="#324A5E"/>
<path d="M26.9774 72.3541C29.3685 71.3118 31.5758 70.3308 33.5071 69.5644C37.3698 67.9703 39.9756 66.9893 39.9756 66.9893C39.9756 66.9893 37.2472 67.6024 33.2925 68.9206C31.2999 69.595 29.0007 70.3921 26.5788 71.4037C24.157 72.4154 21.6125 73.519 19.0681 74.7146C16.5543 75.9408 14.1018 77.259 11.8026 78.5159C10.6377 79.1291 9.5647 79.8035 8.55305 80.4166C7.51074 81.0297 6.56041 81.6429 5.70203 82.2253C3.92398 83.3289 2.54446 84.3713 1.5328 85.0763C0.55181 85.8121 0 86.2106 0 86.2106C0 86.2106 2.42183 84.8311 6.06991 82.7771C7.87862 81.7348 10.0552 80.6312 12.3238 79.405C14.623 78.1787 17.1061 76.9525 19.6199 75.7875C22.0724 74.5613 24.5862 73.3964 26.9774 72.3541Z" fill="#324A5E"/>
<path d="M28.5107 74.6859C27.1311 75.5136 25.7516 76.372 24.4947 77.2303C23.2378 78.0887 22.1342 78.9777 21.1839 79.7441C20.2335 80.4799 19.4978 81.2156 19.0073 81.6755C18.5168 82.166 18.2102 82.4419 18.2102 82.4419C18.2102 82.4419 19.5591 81.5835 21.5824 80.2653C23.6057 78.9777 26.3341 77.2917 29.0931 75.6975C31.8522 74.1034 34.6419 72.54 36.7572 71.375C38.8724 70.2408 40.2826 69.4744 40.2826 69.4744C40.2826 69.4744 38.7191 69.8729 36.4506 70.7619C34.2434 71.6816 31.3004 73.0305 28.5107 74.6859Z" fill="#324A5E"/>
</svg>
